<svg width="31" height="29" viewBox="0 0 31 29" fill="none" xmlns="http://www.w3.org/2000/svg">
<path d="M4 4.33333V0.333333H6.66667V4.33333H10.6667V7H6.66667V11H4V7H0V4.33333H4ZM8 12.3333V8.33333H12V4.33333H21.3333L23.7733 7H28C29.4667 7 30.6667 8.2 30.6667 9.66667V25.6667C30.6667 27.1333 29.4667 28.3333 28 28.3333H6.66667C5.2 28.3333 4 27.1333 4 25.6667V12.3333H8ZM17.3333 24.3333C21.0133 24.3333 24 21.3467 24 17.6667C24 13.9867 21.0133 11 17.3333 11C13.6533 11 10.6667 13.9867 10.6667 17.6667C10.6667 21.3467 13.6533 24.3333 17.3333 24.3333ZM13.0667 17.6667C13.0667 20.0267 14.9733 21.9333 17.3333 21.9333C19.6933 21.9333 21.6 20.0267 21.6 17.6667C21.6 15.3067 19.6933 13.4 17.3333 13.4C14.9733 13.4 13.0667 15.3067 13.0667 17.6667Z" fill="#A2A2A2"/>
</svg>
