<svg width="22" height="21" viewBox="0 0 22 21" fill="none" xmlns="http://www.w3.org/2000/svg">
<path d="M1 10C1 6.229 1 4.343 2.172 3.172C3.343 2 5.229 2 9 2H13C16.771 2 18.657 2 19.828 3.172C21 4.343 21 6.229 21 10V12C21 15.771 21 17.657 19.828 18.828C18.657 20 16.771 20 13 20H9C5.229 20 3.343 20 2.172 18.828C1 17.657 1 15.771 1 12V10Z" stroke="#6B6B6E"/>
<path d="M6 2V0.5M16 2V0.5M1.5 7H20.5" stroke="#6B6B6E" stroke-linecap="round"/>
<path d="M17 15C17 15.2652 16.8946 15.5196 16.7071 15.7071C16.5196 15.8946 16.2652 16 16 16C15.7348 16 15.4804 15.8946 15.2929 15.7071C15.1054 15.5196 15 15.2652 15 15C15 14.7348 15.1054 14.4804 15.2929 14.2929C15.4804 14.1054 15.7348 14 16 14C16.2652 14 16.5196 14.1054 16.7071 14.2929C16.8946 14.4804 17 14.7348 17 15ZM17 11C17 11.2652 16.8946 11.5196 16.7071 11.7071C16.5196 11.8946 16.2652 12 16 12C15.7348 12 15.4804 11.8946 15.2929 11.7071C15.1054 11.5196 15 11.2652 15 11C15 10.7348 15.1054 10.4804 15.2929 10.2929C15.4804 10.1054 15.7348 10 16 10C16.2652 10 16.5196 10.1054 16.7071 10.2929C16.8946 10.4804 17 10.7348 17 11ZM12 15C12 15.2652 11.8946 15.5196 11.7071 15.7071C11.5196 15.8946 11.2652 16 11 16C10.7348 16 10.4804 15.8946 10.2929 15.7071C10.1054 15.5196 10 15.2652 10 15C10 14.7348 10.1054 14.4804 10.2929 14.2929C10.4804 14.1054 10.7348 14 11 14C11.2652 14 11.5196 14.1054 11.7071 14.2929C11.8946 14.4804 12 14.7348 12 15ZM12 11C12 11.2652 11.8946 11.5196 11.7071 11.7071C11.5196 11.8946 11.2652 12 11 12C10.7348 12 10.4804 11.8946 10.2929 11.7071C10.1054 11.5196 10 11.2652 10 11C10 10.7348 10.1054 10.4804 10.2929 10.2929C10.4804 10.1054 10.7348 10 11 10C11.2652 10 11.5196 10.1054 11.7071 10.2929C11.8946 10.4804 12 10.7348 12 11ZM7 15C7 15.2652 6.89464 15.5196 6.70711 15.7071C6.51957 15.8946 6.26522 16 6 16C5.73478 16 5.48043 15.8946 5.29289 15.7071C5.10536 15.5196 5 15.2652 5 15C5 14.7348 5.10536 14.4804 5.29289 14.2929C5.48043 14.1054 5.73478 14 6 14C6.26522 14 6.51957 14.1054 6.70711 14.2929C6.89464 14.4804 7 14.7348 7 15ZM7 11C7 11.2652 6.89464 11.5196 6.70711 11.7071C6.51957 11.8946 6.26522 12 6 12C5.73478 12 5.48043 11.8946 5.29289 11.7071C5.10536 11.5196 5 11.2652 5 11C5 10.7348 5.10536 10.4804 5.29289 10.2929C5.48043 10.1054 5.73478 10 6 10C6.26522 10 6.51957 10.1054 6.70711 10.2929C6.89464 10.4804 7 10.7348 7 11Z" fill="#6B6B6E"/>
</svg>
