<svg width="40" height="40" viewBox="0 0 40 40" fill="none" xmlns="http://www.w3.org/2000/svg">
<rect width="40" height="40" rx="20" fill="#FEFEFE"/>
<path d="M8.9165 20C8.9165 14.7757 8.9165 12.1623 10.5393 10.5395C12.1622 8.91666 14.7743 8.91666 19.9998 8.91666C25.2242 8.91666 27.8375 8.91666 29.4603 10.5395C31.0832 12.1623 31.0832 14.7745 31.0832 20C31.0832 25.2243 31.0832 27.8377 29.4603 29.4605C27.8375 31.0833 25.2253 31.0833 19.9998 31.0833C14.7755 31.0833 12.1622 31.0833 10.5393 29.4605C8.9165 27.8377 8.9165 25.2255 8.9165 20Z" stroke="#949184" stroke-width="1.5" stroke-linecap="round" stroke-linejoin="round"/>
<path d="M26.426 13.5833H26.4143M25.25 20C25.25 21.3924 24.6969 22.7277 23.7123 23.7123C22.7277 24.6969 21.3924 25.25 20 25.25C18.6076 25.25 17.2723 24.6969 16.2877 23.7123C15.3031 22.7277 14.75 21.3924 14.75 20C14.75 18.6076 15.3031 17.2722 16.2877 16.2877C17.2723 15.3031 18.6076 14.75 20 14.75C21.3924 14.75 22.7277 15.3031 23.7123 16.2877C24.6969 17.2722 25.25 18.6076 25.25 20Z" stroke="#949184" stroke-width="1.5" stroke-linecap="round" stroke-linejoin="round"/>
</svg>
