<svg width="48" height="48" viewBox="0 0 48 48" fill="none" xmlns="http://www.w3.org/2000/svg">
<rect x="0.5" y="0.5" width="47" height="47" rx="23.5" fill="#629015"/>
<rect x="0.5" y="0.5" width="47" height="47" rx="23.5" stroke="#FEFEFE"/>
<path d="M36 24C36 24.2652 35.8946 24.5196 35.7071 24.7071C35.5196 24.8946 35.2652 25 35 25H25V35C25 35.2652 24.8946 35.5196 24.7071 35.7071C24.5196 35.8946 24.2652 36 24 36C23.7348 36 23.4804 35.8946 23.2929 35.7071C23.1054 35.5196 23 35.2652 23 35V25H13C12.7348 25 12.4804 24.8946 12.2929 24.7071C12.1054 24.5196 12 24.2652 12 24C12 23.7348 12.1054 23.4804 12.2929 23.2929C12.4804 23.1054 12.7348 23 13 23H23V13C23 12.7348 23.1054 12.4804 23.2929 12.2929C23.4804 12.1054 23.7348 12 24 12C24.2652 12 24.5196 12.1054 24.7071 12.2929C24.8946 12.4804 25 12.7348 25 13V23H35C35.2652 23 35.5196 23.1054 35.7071 23.2929C35.8946 23.4804 36 23.7348 36 24Z" fill="#FEFEFE"/>
</svg>
