<svg width="19" height="19" viewBox="0 0 19 19" fill="none" xmlns="http://www.w3.org/2000/svg">
<path fill-rule="evenodd" clip-rule="evenodd" d="M0.292453 0.29343C0.479954 0.106162 0.734119 0.000976562 0.99912 0.000976562C1.26412 0.000976562 1.51829 0.106162 1.70579 0.29343L17.7058 16.2934C17.804 16.385 17.8828 16.4954 17.9375 16.618C17.9922 16.7407 18.0215 16.8731 18.0239 17.0074C18.0263 17.1417 18.0016 17.275 17.9513 17.3996C17.901 17.5241 17.8261 17.6372 17.7312 17.7321C17.6362 17.8271 17.5231 17.902 17.3986 17.9523C17.2741 18.0026 17.1407 18.0273 17.0064 18.0249C16.8722 18.0225 16.7397 17.9931 16.6171 17.9385C16.4944 17.8838 16.384 17.805 16.2925 17.7068L0.292453 1.70676C0.105186 1.51926 0 1.2651 0 1.0001C0 0.735096 0.105186 0.48093 0.292453 0.29343Z" fill="black"/>
<path fill-rule="evenodd" clip-rule="evenodd" d="M17.7052 0.29343C17.8924 0.48093 17.9976 0.735096 17.9976 1.0001C17.9976 1.2651 17.8924 1.51926 17.7052 1.70676L1.70516 17.7068C1.51559 17.8834 1.26486 17.9796 1.0058 17.975C0.746728 17.9704 0.499548 17.8655 0.316331 17.6823C0.133113 17.499 0.0281643 17.2519 0.0235933 16.9928C0.0190223 16.7337 0.115186 16.483 0.291826 16.2934L16.2918 0.29343C16.4793 0.106162 16.7335 0.000976562 16.9985 0.000976562C17.2635 0.000976562 17.5177 0.106162 17.7052 0.29343Z" fill="black"/>
</svg>
