<svg width="356" height="300" viewBox="0 0 356 300" fill="none" xmlns="http://www.w3.org/2000/svg">
<path d="M271.626 75.811C272.148 75.3105 272.499 74.9682 272.859 74.6322C277.442 70.3495 281.653 65.8012 284.87 60.5597C286.696 57.5826 288.123 54.4661 288.683 51.0621C289.62 45.3672 287.704 40.6466 282.855 36.9301C279.891 34.6579 276.441 33.1909 272.795 32.0928C267.788 30.5843 262.62 29.8034 257.376 29.3742C252.008 28.934 246.627 28.7562 241.251 29.0397C220.147 29.3624 187.411 39.0323 160.11 50.3423C152.525 52.9325 145.061 55.8211 137.584 58.6643C130.866 61.2184 124.127 63.7452 117.535 66.5492C96.6654 75.4256 77.1032 86.2461 59.1857 99.4532C46.2247 109.006 34.4557 119.625 24.4497 131.799C17.1993 140.62 11.1033 150.04 6.68269 160.318C3.37976 167.996 1.12872 175.916 0.379939 184.14C-1.3056 202.655 4.30007 219.147 17.3207 233.495C19.5239 235.923 178.817 241.059 264.108 241.059C265.627 241.059 267.148 241.08 268.665 241.016C269.147 240.996 269.703 240.835 270.081 240.569C274.89 237.196 279.592 233.709 284.054 229.955C290.915 224.183 297.237 217.963 302.989 211.27C311.928 200.867 319.303 189.631 324.76 177.381C328.253 169.54 330.809 161.457 332.294 153.102C333.425 146.737 333.776 140.324 333.33 133.899C332.555 122.75 329.316 112.26 322.641 102.777C315.343 92.411 305.243 85.1175 292.734 80.5246C286.265 78.149 279.537 76.6961 272.607 75.9935C272.359 75.9692 272.116 75.9042 271.626 75.811Z" fill="#E0E7F7"/>
<mask id="mask0_1138_5640" style="mask-type:luminance" maskUnits="userSpaceOnUse" x="0" y="28" width="334" height="247">
<path d="M271.626 75.8106C272.149 75.3101 272.5 74.9679 272.859 74.6319C277.443 70.3491 281.653 65.8008 284.87 60.5593C286.697 57.5822 288.123 54.4657 288.683 51.0618C289.621 45.3668 287.705 40.6462 282.856 36.9297C279.891 34.6575 276.441 33.1905 272.795 32.0924C267.789 30.5839 262.621 29.803 257.377 29.3738C222.411 25.5014 188.184 39.9969 160.11 50.3427C152.525 52.9329 145.062 55.8215 137.584 58.6647C130.866 61.2188 124.128 63.7456 117.535 66.5496C96.6659 75.4261 77.1036 86.2465 59.1862 99.4536C46.2251 109.007 34.4561 119.625 24.4502 131.799C17.1997 140.621 11.1038 150.041 6.68313 160.319C3.3802 167.997 1.12917 175.916 0.380388 184.141C-1.30515 202.656 3.91751 219.505 17.3211 233.495C53.1067 270.846 169.992 300.278 270.082 240.569C275.126 237.56 279.593 233.71 284.055 229.956C290.915 224.183 297.238 217.964 302.99 211.27C311.928 200.868 319.303 189.631 324.76 177.381C328.253 169.54 330.81 161.457 332.294 153.103C333.425 146.738 333.777 140.324 333.33 133.899C332.556 122.75 329.317 112.26 322.641 102.778C315.343 92.4114 305.244 85.1179 292.735 80.525C286.265 78.1494 279.537 76.6965 272.607 75.9939C272.36 75.9688 272.117 75.9038 271.626 75.8106Z" fill="white"/>
</mask>
<g mask="url(#mask0_1138_5640)">
<path fill-rule="evenodd" clip-rule="evenodd" d="M270.02 107.892C270.791 108.608 272.31 108.368 273.847 108.368C292.78 108.368 311.462 108.488 330.696 108.488C332.452 108.488 337.798 108.73 337.641 107.057C337.548 106.051 333.886 106.023 332.538 105.627C329.954 104.867 327.722 102.768 324.741 102.529C323.061 102.392 321.3 102.849 320.206 103.124C319.114 103.398 317.17 104.279 316.094 104.077C314.699 103.816 314.786 101.55 313.968 100.382C313.096 99.138 310.787 98.0532 308.156 98.4746C304.998 98.9798 301.602 100.965 298.089 102.289C296.472 102.899 294.764 103.613 292.987 104.077C290.999 104.595 288.693 105.095 286.749 104.911C284.697 104.718 283.016 103.438 280.936 103.363C278.536 103.274 276.458 104.241 274.557 105.031C273.655 105.406 272.699 105.818 271.863 106.223C271.141 106.573 269.86 106.923 270.02 107.892Z" fill="white"/>
<path fill-rule="evenodd" clip-rule="evenodd" d="M414.622 98.2449C399.053 100.385 371.518 104.104 357.91 108.137C344.369 112.151 331.31 116.688 317.932 120.771C304.232 124.953 290.584 128.769 273.701 129.83C264.901 130.381 256.011 129.957 247.474 129.234C222.482 127.114 199.962 123.212 177.298 118.864C147.232 113.094 116.44 108.492 84.3012 104.562C68.063 102.575 37.7515 100.987 19.7918 101.105C19.7918 102.376 19.7918 103.648 19.7918 104.919C47.9478 105.801 87.6793 108.275 112.228 112.189C105.475 112.084 98.5193 111.713 91.5297 111.713C70.4652 111.713 37.2463 113.965 19.791 116.957C19.791 118.824 19.791 120.692 19.791 122.559C41.6333 117.412 79.3534 113.619 107.123 113.618C116.21 113.618 124.901 114.252 132.783 115.765C148.041 118.691 162.625 122.157 177.155 125.896C184.334 127.742 191.471 129.786 198.847 131.378C220.987 136.155 247.415 139.356 274.833 137.218C291.44 135.923 306.611 132.14 320.34 128.041C334.166 123.913 346.824 118.656 359.751 113.738C372.685 108.819 399.191 103.604 414.619 101.104C414.622 100.152 414.622 99.1981 414.622 98.2449Z" fill="white"/>
<path d="M226.08 148.052C231.555 142.567 237.059 137.145 242.722 131.874C246.525 128.335 250.346 124.846 254.076 121.312C255.961 119.527 261.195 115.033 261.34 114.918C262.872 113.707 264.631 112.625 266.559 111.915C268.007 111.384 269.412 111.008 271.214 111.174C272.772 111.318 274.116 111.859 275.339 112.516C277.75 113.814 279.771 115.376 281.827 117.002C283.872 118.621 285.765 120.366 287.68 122.089C293.472 127.303 298.658 132.908 304.287 138.338C306.091 136.308 307.918 134.396 310.14 132.756C311.698 131.607 313.931 130.365 316.663 131.131C317.095 131.253 317.592 131.484 317.968 131.625C318.064 131.661 318.163 131.665 318.25 131.696C318.434 131.762 318.544 131.869 318.708 131.979C319.292 132.371 319.873 132.713 320.436 133.11C322.12 134.295 323.62 135.629 325.055 137.066C326.976 138.989 328.892 140.886 330.696 142.894C334.301 146.903 337.7 151.156 341.134 155.363C341.565 155.893 341.987 156.409 342.403 156.953C342.813 157.49 343.203 158.054 343.637 158.578C346.24 161.721 393.724 211.19 396.271 214.344C396.271 220.326 258.65 195.311 258.65 201.292C216.592 201.292 268.644 188.685 225.309 186.502V148.843C225.565 148.579 225.821 148.312 226.08 148.052Z" fill="#7F91D5"/>
<path d="M225.313 186.502L193.527 177.07C193.783 176.806 237.031 137.144 242.679 131.873C246.471 128.334 250.281 124.845 254.001 121.311C255.88 119.526 261.101 115.032 261.246 114.917C262.773 113.706 264.527 112.624 266.45 111.914C267.894 111.383 269.295 111.007 271.091 111.173C271.927 111.251 272.698 111.445 273.425 111.708C273.41 117.446 270.546 125.239 261.087 135.317C239.787 158.009 251.336 186.664 259.287 200.695C258.814 200.842 258.562 201.038 258.562 201.291C216.62 201.292 268.53 188.685 225.313 186.502Z" fill="#A2AFF1"/>
<path d="M310.7 169.029C324.552 148.675 322.268 137.444 317.546 131.49C317.666 131.54 317.781 131.586 317.886 131.625C317.982 131.661 318.081 131.664 318.168 131.696C318.353 131.762 318.463 131.869 318.627 131.978C319.212 132.371 319.794 132.713 320.357 133.109C322.043 134.295 323.545 135.628 324.981 137.066C326.903 138.989 328.821 140.886 330.628 142.894C334.237 146.903 337.639 151.155 341.076 155.363C341.508 155.892 341.931 156.409 342.347 156.953C342.757 157.489 343.148 158.053 343.582 158.577C346.188 161.72 393.721 211.19 396.27 214.344C396.27 217.902 347.499 215.951 308.003 210.621C303.89 201.616 301.293 182.853 310.7 169.029Z" fill="#A2AFF1"/>
<path d="M350.628 232.449H-20.7363V297.134H350.628V232.449Z" fill="#99D937"/>
<path fill-rule="evenodd" clip-rule="evenodd" d="M-20.7539 140.118C-20.7539 165.934 -20.7539 206.636 -20.7539 232.449C45.647 232.931 108.699 239.063 175.121 239.528C232.51 239.928 293.273 232.024 350.63 232.449C350.63 231.599 350.63 218.499 350.63 217.651C337.952 213.5 324.926 209.762 311.822 206.162C298.672 202.551 285.502 198.857 272.36 195.199C226.066 182.312 182.182 167.897 132.721 158.275C125.613 156.891 118.345 155.665 110.995 154.678C103.564 153.681 95.5191 152.925 87.3186 152.924C61.9502 152.922 41.5083 158.006 27.9912 169.237C24.2144 166.503 20.2418 164.053 16.3843 161.432C4.80406 153.561 -6.97512 145.941 -20.6607 140.118C-20.692 140.118 -20.7234 140.118 -20.7539 140.118Z" fill="#DDE29A"/>
<path fill-rule="evenodd" clip-rule="evenodd" d="M-20.7539 220.008C-20.7539 233.719 -20.7539 272.114 -20.7539 285.824C-13.487 286.444 64.7448 295.447 146.272 294.583C239.925 293.59 338.615 282.752 350.63 284.421C350.63 271.762 350.63 234.421 350.63 221.762C334.994 220.029 319.934 218.272 304.672 216.588C289.207 214.879 273.581 213.863 257.32 212.728C253.129 212.435 249.081 212.116 245.158 212.116C241.102 212.116 237.123 212.596 233.273 213.079C225.836 214.013 218.878 215.652 212.382 217.641C205.894 219.626 200.076 222.257 194.184 224.745C191.172 226.016 188.228 227.282 184.992 228.165C181.626 229.084 178.081 229.714 174.036 230.008C165.782 230.608 157.481 230.137 149.339 229.568C141.245 229.003 133.191 228.434 125.292 227.99C109.311 227.091 93.2242 225.863 77.2915 224.745C69.326 224.185 61.2625 223.739 53.152 223.254C28.8057 221.798 2.95012 221.856 -20.7539 220.008Z" fill="#DDE29A"/>
<path fill-rule="evenodd" clip-rule="evenodd" d="M414.621 94.4307C381.657 95.828 341.561 104.81 314.413 111.594C300.068 115.179 286.084 117.866 269.734 118.984C261.361 119.556 252.753 119.819 243.852 119.819C235.238 119.819 226.543 119.353 217.826 119.104C200.501 118.609 183.412 117.97 166.351 117.315C141.182 116.35 113.062 115.527 88.9933 117.673C64.3783 119.867 31.2676 125.768 11.9199 132.095C11.9199 132.929 11.9199 133.764 11.9199 134.598C24.5387 130.381 51.4071 126.363 65.8571 123.394C80.2734 120.433 96.1991 118.778 113.719 118.626C148.3 118.328 183.333 120.533 217.537 121.366C226.222 121.579 234.897 122.082 243.563 122.082C261.176 122.082 278.366 121.143 293.159 118.626C300.353 117.402 307.226 115.682 314.269 113.977C341.639 107.355 381.265 98.1009 414.622 96.8141C414.621 96.0199 414.621 95.2249 414.621 94.4307Z" fill="white"/>
<path fill-rule="evenodd" clip-rule="evenodd" d="M39.0762 97.7163C39.0762 98.3915 39.0762 99.0674 39.0762 99.7426C75.8384 100.28 124.51 100.22 161.709 100.22C171.97 100.22 183.071 99.9807 193.323 99.9807C194.981 99.9807 196.564 100.258 197.152 99.5037C149.787 98.2035 87.4139 98.1972 39.0762 97.7163Z" fill="white"/>
<path fill-rule="evenodd" clip-rule="evenodd" d="M161.205 51.3232C161.205 79.6695 138.245 102.648 109.922 102.648C81.5975 102.648 58.6367 79.6695 58.6367 51.3232C58.6367 22.9792 81.5975 0.000488281 109.922 0.000488281C138.245 0.000488281 161.205 22.9785 161.205 51.3232Z" fill="#FDC400"/>
<path fill-rule="evenodd" clip-rule="evenodd" d="M50.3887 92.1051C50.3887 92.6268 50.3887 93.1476 50.3887 93.6693C158.375 94.0248 291.236 94.2966 399.592 94.5034C399.592 93.2173 399.592 91.9312 399.592 90.6452C390.518 88.1458 367.985 89.7953 358.587 90.4368C355.24 90.6655 351.531 90.906 348.557 90.2277C347.215 89.9222 345.815 89.1993 344.795 88.3503C343.342 87.1425 342.61 85.4671 341.41 84.3878C339.807 82.9475 336.728 82.1807 333.511 82.6154C329.997 83.09 326.361 85.4374 322.477 85.0137C320.126 84.7568 319.081 83.4041 317.336 82.8237C310.64 80.5993 302.224 83.1832 296.772 85.222C293.903 86.2958 291.01 87.5435 287.745 88.4552C281.103 90.3099 273.723 90.7266 265.176 91.0626C256.623 91.3986 248.129 91.9234 242.23 89.2901C239.496 88.0691 237.177 86.0499 236.839 83.0328C236.607 80.958 237.214 79.2185 237.717 77.4021C238.219 75.5952 238.725 73.789 238.971 72.0839C239.584 67.8387 238.371 64.6423 235.836 62.2816C233.484 60.0893 229.833 58.5213 224.677 58.8401C222.634 58.9662 220.578 59.6546 218.785 60.3C216.847 60.9963 214.93 61.9832 212.766 61.5516C209.905 60.9799 210.042 57.7803 208.88 56.0243C208.12 54.8776 206.898 53.9346 205.119 53.5219C201.809 52.7535 198.451 53.8445 196.466 54.7735C193.629 56.1003 191.648 58.0662 189.32 59.8826C187.124 61.5963 184.794 63.3304 181.922 64.8883C176.615 67.7667 170.641 70.0083 163.992 72.1881C158.106 74.1188 150.857 75.8427 142.927 76.8813C139.247 77.3629 134.651 77.8 131.517 78.5496C130.061 78.8973 128.554 79.3171 126.627 80.0087C125.169 80.5327 122.691 81.587 122.741 82.4078C122.83 83.8834 127.342 83.9155 127.129 85.8486C127.056 86.5136 125.607 87.2467 124.622 87.5169C120.494 88.6495 116.121 87.1253 113.087 86.3702C110.956 85.84 108.343 85.1766 105.688 84.9103C102.956 84.6361 99.6178 84.6722 97.2876 85.3277C94.5267 86.1047 91.5144 88.998 88.1355 89.6035C85.9369 89.9966 83.5911 89.7961 81.3643 89.7076C73.9282 89.4123 55.6787 90.6718 50.3887 92.1051Z" fill="white"/>
</g>
<path fill-rule="evenodd" clip-rule="evenodd" d="M112.244 84.2024C101.86 87.2625 91.7099 91.1231 81.2481 93.8801C67.608 84.6567 58.6406 69.0381 58.6406 51.3227C58.6406 22.9787 81.6014 0 109.926 0C138.249 0 161.209 22.9787 161.209 51.3227C161.209 61.9043 158.007 71.7355 152.524 79.9055C138.87 78.3328 125.508 80.294 112.244 84.2024Z" fill="#F7F070"/>
<path fill-rule="evenodd" clip-rule="evenodd" d="M81.2481 93.8801C67.608 84.6567 58.6406 69.0381 58.6406 51.3227C58.6406 22.9787 81.6014 0 109.926 0C138.249 0 161.209 22.9787 161.209 51.3227C161.209 61.9043 158.007 71.7355 152.524 79.9055L81.2481 93.8801Z" fill="#FDC400"/>
<path d="M187.649 19.393C188.079 16.2577 183.661 13.6808 180.341 13.4137C178.757 13.2845 177.113 13.5273 175.613 13.0025C172.363 11.8692 171.065 7.66787 167.893 6.3301C165.522 5.32833 162.792 6.21887 160.493 7.37807C158.195 8.5357 155.923 9.99332 153.355 10.157C151.121 10.2996 148.696 9.47011 146.742 10.562C145.285 11.3765 144.523 13.055 143.18 14.0466C141.867 15.0155 140.153 15.2207 138.524 15.31C136.895 15.3993 135.208 15.4141 133.725 16.094C132.24 16.7738 131.012 18.3427 131.322 19.9483L187.649 19.393Z" fill="white"/>
<path fill-rule="evenodd" clip-rule="evenodd" d="M23.8033 59.7834C24.5639 60.641 26.0136 60.3904 26.9888 60.4139C35.8026 60.6207 45.4169 60.4139 54.5432 60.4139C82.8942 60.4139 111.957 60.5713 140.767 60.5713C143.124 60.5713 145.572 60.8086 147.89 60.4139C147.766 57.884 143.65 56.9982 140.957 56.6324C137.671 56.1852 133.615 56.088 130.084 56.1593C122.864 56.305 114.994 57.8088 108.715 57.2621C103.696 56.8243 101.249 53.1031 96.1569 52.6919C94.0116 52.5188 91.9133 53.0381 90.158 53.4798C88.6221 53.866 86.1212 55.0025 84.7231 54.7409C82.8136 54.3829 83.1629 51.6392 81.912 49.8558C80.7435 48.1898 77.7593 46.7714 74.2245 47.3345C71.8717 47.7089 69.518 48.7561 67.2897 49.6976C63.086 51.4747 59.1236 53.4485 54.1696 54.7409C51.6311 55.4019 48.6235 56.099 45.9213 55.8437C43.1541 55.5821 41.1404 53.9012 38.2377 53.7955C34.9669 53.6757 32.2811 54.9711 29.8022 56.0019C28.5929 56.5039 27.3773 57.0279 26.2416 57.5778C25.315 58.0242 23.577 58.5082 23.8033 59.7834Z" fill="white"/>
<path fill-rule="evenodd" clip-rule="evenodd" d="M241.17 159.496C241.932 160.353 243.381 160.103 244.356 160.126C253.17 160.333 262.783 160.126 271.91 160.126C300.261 160.126 319.993 160.283 348.803 160.283C351.159 160.283 353.607 160.521 355.926 160.126C355.802 157.597 351.685 156.71 348.992 156.345C345.707 155.897 332.361 157.522 326.082 156.975C321.063 156.536 318.616 152.816 313.524 152.405C311.379 152.232 309.28 152.751 307.525 153.192C305.989 153.579 303.488 154.715 302.09 154.453C300.181 154.095 300.531 151.351 299.279 149.568C298.111 147.902 295.126 146.484 291.592 147.047C289.239 147.421 286.885 148.468 284.657 149.41C280.453 151.187 276.491 153.161 271.537 154.453C268.998 155.115 265.991 155.811 263.288 155.556C260.521 155.295 258.507 153.613 255.605 153.508C252.334 153.388 249.648 154.683 247.169 155.714C245.96 156.216 244.744 156.74 243.609 157.29C242.682 157.736 240.945 158.22 241.17 159.496Z" fill="white"/>
<path fill-rule="evenodd" clip-rule="evenodd" d="M228.269 44.6567C229.05 44.9105 230.022 44.8815 230.952 44.9073C235.474 45.0303 240.41 44.9504 244.812 45.0327C246.312 45.0601 247.834 45.1501 249.284 45.1572C262.926 45.2269 277.334 45.5339 290.565 45.5339C292.911 45.5339 295.365 45.9185 297.57 45.7846C298.719 45.7149 302.223 45.0045 302.34 44.0301C302.608 41.7728 296.423 42.6156 295.334 41.7744C294.911 40.5055 296.707 39.8703 296.229 38.7675C295.79 37.7563 292.885 37.7344 291.311 37.8903C287.381 38.2819 284.627 39.286 281.177 39.8954C279.491 40.193 277.166 40.6794 276.109 39.7708C276.288 38.1252 277.989 37.1838 279.239 36.3872C281.942 34.6649 284.731 33.5433 287.734 31.6267C288.943 30.8544 290.669 29.4916 290.565 28.1178C290.412 26.061 286.432 25.3083 283.412 25.1117C281.118 24.9621 278.67 25.3662 276.408 25.613C269.698 26.3429 264.186 27.7301 258.821 29.6224C254.008 31.3189 248.951 33.9232 244.962 36.8885C243.699 37.826 242.242 39.2962 240.789 39.6447C237.62 40.4076 236.756 38.7902 233.784 38.7683C229.865 38.7385 227.181 41.7242 228.269 44.6567Z" fill="white"/>
<path d="M76.9147 217.651C76.1902 217.651 75.6027 217.051 75.6027 216.311V176.747H51.9653V216.311C51.9653 217.051 51.3771 217.651 50.6518 217.651C49.9273 217.651 49.3398 217.051 49.3398 216.311V175.407C49.3398 174.666 49.9273 174.066 50.6518 174.066H76.9147C77.6392 174.066 78.2274 174.666 78.2274 175.407V216.311C78.2282 217.051 77.6392 217.651 76.9147 217.651Z" fill="#32327F"/>
<path d="M70.5533 178.123H56.8638C55.7336 178.123 54.8164 177.188 54.8164 176.033V174.233C54.8164 173.078 55.7328 172.143 56.8638 172.143H70.5533C71.6835 172.143 72.5999 173.078 72.5999 174.233V176.033C72.6007 177.187 71.6843 178.123 70.5533 178.123Z" fill="#DB300E"/>
<path d="M82.7287 292.413H50.149C45.2796 292.413 41.332 288.383 41.332 283.411V222.917C41.332 217.947 45.2796 213.916 50.149 213.916H82.7287C87.5989 213.916 91.5472 217.947 91.5472 222.917V283.411C91.5464 288.382 87.5989 292.413 82.7287 292.413Z" fill="#EDAD0F"/>
<path d="M76.5119 292.412H43.933C39.0636 292.412 35.1152 288.382 35.1152 283.411V222.917C35.1152 217.946 39.0636 213.916 43.933 213.916H76.5127C81.3829 213.916 85.3312 217.946 85.3312 222.917V283.411C85.3304 288.382 81.3821 292.412 76.5119 292.412Z" fill="#FDC400"/>
<path d="M44.3383 282.98C43.4054 282.98 42.6465 282.207 42.6465 281.253V230.741C42.6465 229.787 43.4054 229.015 44.3383 229.015C45.2735 229.015 46.0301 229.788 46.0301 230.741V281.253C46.0301 282.207 45.2735 282.98 44.3383 282.98Z" fill="#EDAD0F"/>
<path d="M51.9684 282.98C51.0347 282.98 50.2773 282.207 50.2773 281.253V230.741C50.2773 229.787 51.0347 229.015 51.9684 229.015C52.9036 229.015 53.6594 229.788 53.6594 230.741V281.253C53.6594 282.207 52.9036 282.98 51.9684 282.98Z" fill="#EDAD0F"/>
<path d="M59.5973 282.98C58.6629 282.98 57.9062 282.207 57.9062 281.253V230.741C57.9062 229.787 58.6629 229.015 59.5973 229.015C60.5325 229.015 61.2875 229.788 61.2875 230.741V281.253C61.2875 282.207 60.5317 282.98 59.5973 282.98Z" fill="#EDAD0F"/>
<path d="M67.2281 282.98C66.2937 282.98 65.5371 282.207 65.5371 281.253V230.741C65.5371 229.787 66.2937 229.015 67.2281 229.015C68.1625 229.015 68.9199 229.788 68.9199 230.741V281.253C68.9191 282.207 68.1625 282.98 67.2281 282.98Z" fill="#EDAD0F"/>
<path d="M74.8539 282.98C73.9195 282.98 73.1621 282.207 73.1621 281.253V230.741C73.1621 229.787 73.9187 229.015 74.8539 229.015C75.7883 229.015 76.5449 229.788 76.5449 230.741V281.253C76.5449 282.207 75.7883 282.98 74.8539 282.98Z" fill="#EDAD0F"/>
<path d="M70.4302 213.916H47.4883V224.93H70.4302V213.916Z" fill="#EDAD0F"/>
<path d="M49.1584 297.511C49.1584 298.87 48.0783 299.972 46.7475 299.972C45.4168 299.972 44.3359 298.87 44.3359 297.511V294.224C44.3359 292.865 45.416 291.763 46.7475 291.763C48.079 291.763 49.1584 292.865 49.1584 294.224V297.511Z" fill="#32327F"/>
<path d="M81.3658 297.511C81.3658 298.87 80.2865 299.972 78.9557 299.972C77.6242 299.972 76.5449 298.87 76.5449 297.511V294.224C76.5449 292.865 77.6242 291.763 78.9557 291.763C80.2865 291.763 81.3658 292.865 81.3658 294.224V297.511Z" fill="#32327F"/>
<path fill-rule="evenodd" clip-rule="evenodd" d="M144.686 194.491C144.686 194.491 145.283 223.292 146.466 232.481C149.759 258.063 154.203 290.574 153.564 291.713C153.564 291.713 159.1 295.147 163.978 289.451L164.339 287.465C164.339 287.465 172.864 257.915 163.404 232.978C162.601 230.864 163.86 200.158 163.86 200.158L144.686 194.491Z" fill="#ECA47E"/>
<path fill-rule="evenodd" clip-rule="evenodd" d="M145.398 203.051L163.554 202.943C163.554 202.943 155.318 208.673 145.398 203.051Z" fill="#D28255"/>
<path fill-rule="evenodd" clip-rule="evenodd" d="M152.067 286.418C152.604 286.449 154.497 286.407 155.2 287.11C155.929 287.843 155.736 289.043 155.786 290.567C159.375 290.4 160.322 286.787 165.103 287.554C165.696 291.267 165.718 295.56 165.684 299.912C156.088 300.101 146.129 299.919 136.395 299.967C136.59 298.971 136.86 298.066 137.241 297.377C138.414 295.27 140.359 294.244 142.581 293.491C145.579 292.485 149.09 291.558 150.793 289.009C151.27 288.299 151.6 287.441 152.067 286.418Z" fill="#BAC6F5"/>
<path d="M145.218 292.609C144.334 292.923 143.436 293.204 142.581 293.49C140.359 294.242 138.414 295.269 137.241 297.376C136.859 298.066 136.59 298.97 136.395 299.966C140.767 299.944 145.185 299.969 149.595 299.986C149.358 295.962 147.232 293.782 145.218 292.609Z" fill="#32327F"/>
<path d="M159.779 299.984C161.759 299.97 163.731 299.95 165.687 299.912C165.707 297.152 165.703 294.417 165.55 291.838C163.627 292.724 160.382 294.954 159.779 299.984Z" fill="#32327F"/>
<path fill-rule="evenodd" clip-rule="evenodd" d="M152.27 231.895C152.263 232.225 152.231 232.553 152.174 232.876C151.75 235.266 150.935 237.435 149.713 239.397C150.52 239.107 151.29 238.384 151.806 237.665C152.921 236.107 153.636 233.007 152.27 231.895Z" fill="#D28255"/>
<path fill-rule="evenodd" clip-rule="evenodd" d="M171.727 194.491C171.727 194.491 172.324 223.292 173.507 232.481C176.8 258.063 181.244 290.574 180.605 291.713C180.605 291.713 186.141 295.147 191.019 289.451L191.38 287.465C191.38 287.465 199.905 257.915 190.445 232.978C189.642 230.864 190.901 200.158 190.901 200.158L171.727 194.491Z" fill="#ECA47E"/>
<path fill-rule="evenodd" clip-rule="evenodd" d="M172.439 203.051L190.595 202.943C190.595 202.943 182.359 208.673 172.439 203.051Z" fill="#D28255"/>
<path fill-rule="evenodd" clip-rule="evenodd" d="M179.112 286.418C179.649 286.448 181.542 286.407 182.245 287.11C182.974 287.842 182.781 289.042 182.831 290.567C186.42 290.4 187.366 286.787 192.148 287.554C192.741 291.267 192.763 295.56 192.729 299.912C183.133 300.101 173.174 299.919 163.439 299.967C163.635 298.971 163.905 298.066 164.286 297.377C165.459 295.27 167.404 294.244 169.626 293.49C172.624 292.485 176.135 291.557 177.838 289.009C178.315 288.299 178.645 287.441 179.112 286.418Z" fill="#BAC6F5"/>
<path d="M172.263 292.608C171.379 292.922 170.481 293.204 169.626 293.49C167.404 294.242 165.459 295.269 164.286 297.376C163.904 298.066 163.635 298.97 163.439 299.966C167.812 299.943 172.23 299.969 176.64 299.986C176.403 295.962 174.277 293.782 172.263 292.608Z" fill="#32327F"/>
<path d="M186.824 299.984C188.803 299.97 190.776 299.95 192.731 299.912C192.752 297.152 192.748 294.417 192.595 291.838C190.673 292.723 187.427 294.953 186.824 299.984Z" fill="#32327F"/>
<path fill-rule="evenodd" clip-rule="evenodd" d="M179.311 231.895C179.304 232.225 179.272 232.553 179.215 232.876C178.791 235.266 177.976 237.435 176.754 239.397C177.561 239.107 178.331 238.384 178.848 237.665C179.962 236.107 180.676 233.007 179.311 231.895Z" fill="#D28255"/>
<path fill-rule="evenodd" clip-rule="evenodd" d="M159.69 203.265C161.759 203.264 163.828 203.255 165.898 203.252C167.639 196.537 169.612 188.77 169.995 188.683C170.306 193.601 170.416 198.39 170.62 203.241C177.963 203.223 185.305 203.197 192.648 203.164C192.573 200.97 192.396 198.767 192.515 196.578C192.72 192.83 193.405 189.187 193.714 185.641C194.052 181.768 193.797 177.501 192.647 173.251C191.534 169.136 189.7 165.793 188.283 162.154C175.583 162.795 146.281 163.755 146.281 163.755C146.281 163.755 146.1 170.461 145.9 173.72C145.599 178.575 144.643 190.872 143.678 203.234C149.016 203.256 154.353 203.268 159.69 203.265Z" fill="#A2AFF1"/>
<path fill-rule="evenodd" clip-rule="evenodd" d="M156.943 169.913C156.058 174.686 152.021 180.349 145.42 180.86L145.627 177.878C150.901 176.824 152.575 173.566 154.068 170.086C155.106 169.899 155.898 170.114 156.943 169.913Z" fill="#7F91D5"/>
<path fill-rule="evenodd" clip-rule="evenodd" d="M166.94 169.569C167.003 175.302 166.603 183.251 169.995 188.684C169.995 188.684 169.49 190.696 169.176 191.848C165.712 188.807 164.243 180.714 164.228 175.9C164.221 173.552 164.221 171.369 164.554 169.752C165.399 169.609 166.12 169.672 166.94 169.569Z" fill="#7F91D5"/>
<path fill-rule="evenodd" clip-rule="evenodd" d="M175.961 169.204C177.186 169.035 178.232 169.152 179.438 169.014C182.647 172.148 186.85 173.63 192.512 172.782C192.804 173.866 193.042 174.695 193.169 175.607C185.404 176.768 179.731 174.532 175.961 169.204Z" fill="#7F91D5"/>
<path d="M192.513 196.579C192.718 192.832 193.403 189.188 193.712 185.642C194.029 182.017 193.825 178.049 192.855 174.071L192.854 174.07C194.201 180.685 192.245 186.039 189.512 190.213C189.034 190.945 188.061 191.932 188.061 191.932C188.054 192.013 189.043 198.4 189.785 203.175C190.739 203.171 191.692 203.17 192.646 203.165C192.571 200.971 192.394 198.767 192.513 196.579Z" fill="#7F91D5"/>
<path d="M169.95 188.72C167.588 190.541 165.354 194.175 164.164 197.351C163.614 198.816 163.345 200.982 163.309 203.258C164.172 203.256 165.034 203.254 165.897 203.253C167.58 196.763 169.478 189.293 169.95 188.72Z" fill="#7F91D5"/>
<path fill-rule="evenodd" clip-rule="evenodd" d="M188.284 162.154C189.395 164.095 190.535 166.638 191.105 168.777C176.116 169.416 161.017 169.946 146.014 170.607L146.282 163.756L188.284 162.154Z" fill="#DB300E"/>
<path fill-rule="evenodd" clip-rule="evenodd" d="M160.86 170.254C160.874 170.858 160.404 171.36 159.812 171.373C159.219 171.385 158.73 170.904 158.716 170.301L158.58 163.707C158.569 163.103 159.037 162.604 159.629 162.591C160.221 162.578 160.711 163.057 160.725 163.661L160.86 170.254Z" fill="white"/>
<path fill-rule="evenodd" clip-rule="evenodd" d="M174.115 169.918C174.13 170.522 173.659 171.023 173.067 171.036C172.475 171.048 171.986 170.569 171.972 169.965L171.836 163.371C171.824 162.767 172.293 162.267 172.885 162.254C173.477 162.242 173.967 162.721 173.98 163.325L174.115 169.918Z" fill="white"/>
<path fill-rule="evenodd" clip-rule="evenodd" d="M170.258 163.173C170.255 163.12 170.249 163.067 170.237 163.015C170.133 162.551 169.728 162.214 169.257 162.235L163.434 162.475C162.903 162.498 162.488 162.966 162.509 163.526C162.509 163.535 162.512 163.544 162.512 163.554C162.512 163.571 162.51 163.587 162.509 163.605L162.635 169.691C162.636 169.778 162.652 169.86 162.674 169.938C162.673 169.947 162.672 169.956 162.671 169.965C162.694 170.522 163.145 170.955 163.677 170.933L169.491 170.694C170.024 170.671 170.437 170.201 170.415 169.643C170.411 169.568 170.401 169.495 170.382 169.426C170.386 169.389 170.391 169.355 170.39 169.318L170.264 163.23C170.265 163.222 170.262 163.215 170.261 163.208C170.262 163.206 170.263 163.204 170.263 163.204C170.263 163.193 170.26 163.184 170.258 163.173ZM164.599 168.872L164.572 167.553L168.371 167.396L168.397 168.715L164.599 168.872ZM168.306 164.297L168.329 165.376L164.529 165.531L164.508 164.452L168.306 164.297Z" fill="white"/>
<path fill-rule="evenodd" clip-rule="evenodd" d="M148.068 189.657C146.754 188.517 146.267 193.739 147.456 193.931C148.848 194.152 148.649 190.74 148.186 189.779C148.158 189.718 148.114 189.696 148.068 189.657Z" fill="white"/>
<path fill-rule="evenodd" clip-rule="evenodd" d="M148.174 195.946C147.011 195.233 146.418 199.617 147.775 199.484C148.804 199.385 148.976 196.437 148.174 195.946Z" fill="white"/>
<path fill-rule="evenodd" clip-rule="evenodd" d="M170.404 92.6797C171.413 92.9844 172.281 92.3727 173.138 92.4149C174.17 92.4666 175.09 93.4833 176.034 93.972C177.1 94.5242 178.054 94.8156 178.992 95.2659C180.083 94.6542 180.29 93.4747 181.509 92.9452C182.853 95.2025 185.128 95.9489 187.434 96.6468C187.606 98.5407 187.507 100.699 186.525 101.719C188.848 104.451 189.092 109.779 187.775 112.304C189.302 113.998 190.65 115.326 192.064 117.378C193.139 118.939 193.844 120.345 194.632 122.355C194.85 122.912 194.986 123.681 195.283 124.186C195.699 124.895 196.807 125.351 197.344 125.814C199.764 127.891 201.924 131.206 202.701 136.215C203.346 140.367 202.347 144.154 200.757 147.076C198.925 150.44 193.63 155.386 188.251 153.579C185.66 147.536 183.896 140.906 182.101 134.194C181.864 133.31 181.901 132.327 181.613 131.456C181.414 130.866 180.838 130.164 180.446 129.498C177.92 125.198 173.769 120.137 172.06 114.259C170.614 109.281 169.902 103.851 169.024 98.4851C168.738 96.7392 168.642 94.8892 168.213 93.2217C168.239 93.0384 170.253 92.7839 170.404 92.6797Z" fill="#32327F"/>
<path fill-rule="evenodd" clip-rule="evenodd" d="M152.113 92.0357C153.094 92.425 154.008 91.8885 154.858 92.0036C155.884 92.143 156.717 93.2341 157.618 93.8004C158.636 94.4403 159.562 94.8115 160.461 95.3402C161.598 94.8225 161.9 93.6649 163.158 93.2404C164.314 95.6042 166.52 96.5402 168.761 97.4307C168.779 99.3324 168.506 101.475 167.443 102.408C169.537 105.327 169.347 110.658 167.83 113.063C169.214 114.88 170.45 116.318 171.692 118.482C172.636 120.128 173.225 121.59 173.846 123.66C174.019 124.233 174.092 125.011 174.348 125.54C174.705 126.281 175.772 126.829 176.27 127.336C178.513 129.61 180.397 133.096 180.765 138.154C181.07 142.347 179.768 146.036 177.946 148.813C175.848 152.01 170.168 156.492 164.954 154.235C162.864 147.994 161.643 141.237 160.399 134.397C160.235 133.497 160.351 132.519 160.135 131.628C159.986 131.022 159.468 130.274 159.131 129.577C156.962 125.079 153.238 119.684 152.011 113.681C150.974 108.599 150.705 103.127 150.265 97.7048C150.124 95.941 150.178 94.0894 149.885 92.3913C149.925 92.2096 151.954 92.1266 152.113 92.0357Z" fill="#32327F"/>
<path fill-rule="evenodd" clip-rule="evenodd" d="M199.054 127.563C199.4 127.96 200.145 128.936 200.535 129.779C196.517 130.911 191.55 133.528 187.551 135.299L187.053 132.793C190.484 131.025 195.027 128.948 199.054 127.563Z" fill="#7F91D5"/>
<path fill-rule="evenodd" clip-rule="evenodd" d="M190.785 137.579C190.162 138.072 191.864 141.373 194.587 144.951C197.308 148.531 200.018 151.034 200.64 150.54C201.262 150.047 199.56 146.746 196.838 143.167C194.116 139.589 191.404 137.088 190.785 137.579Z" fill="#E8E8E8"/>
<path fill-rule="evenodd" clip-rule="evenodd" d="M191.731 138.068C192.144 137.716 194.557 139.941 197.071 143.018C199.586 146.096 201.055 149.018 200.644 149.369C200.23 149.72 197.858 147.51 195.344 144.432C192.827 141.354 191.32 138.419 191.731 138.068Z" fill="white"/>
<path d="M191.087 134.892C191.52 135.857 191.839 136.041 192.416 136.846C192.256 136.986 191.639 137.356 190.899 137.526C191.946 137.504 194.398 139.916 196.925 143.281C199.168 146.273 200.651 149.048 200.747 150.363C200.801 149.914 201.099 149.45 201.939 148.723C202.42 148.307 207.399 144.126 208.352 143.216C209.434 142.185 210.158 141.327 209.021 139.921C208.237 138.931 203.155 131.816 202.06 130.982C200.99 130.176 200.096 131.001 198.706 132.089C197.937 131.028 197.072 130.114 195.697 130.023C194.456 129.953 193.215 130.531 192.246 131.249C191.086 132.105 190.453 133.481 191.087 134.892ZM193.333 132.228C193.942 131.773 194.713 131.393 195.462 131.391C196.299 131.399 197.102 132.34 197.561 132.98C196.315 133.946 194.682 135.202 193.601 136.008C193.243 135.514 192.565 134.75 192.339 134.208C192 133.402 192.602 132.77 193.333 132.228Z" fill="#DB300E"/>
<path d="M200.266 140.01C197.806 143.424 201.7 145.353 203.781 137.206C195.533 137.294 196.424 141.619 200.266 140.01Z" fill="white"/>
<path d="M194.198 133.67C194.165 133.677 194.131 133.683 194.097 133.687C193.69 133.724 193.331 133.417 193.296 133.002C193.132 131.124 192.234 129.972 192.226 129.961C191.967 129.638 192.01 129.163 192.325 128.898C192.64 128.631 193.105 128.676 193.367 128.997C193.415 129.058 194.562 130.498 194.769 132.868C194.803 133.247 194.551 133.588 194.198 133.67Z" fill="#7F91D5"/>
<path fill-rule="evenodd" clip-rule="evenodd" d="M148.377 70.6685C157.151 72.3572 169.605 72.4434 180.345 67.0703C175.959 70.9701 173.919 77.984 175.141 85.6292C175.85 90.0483 177.611 93.9825 180.17 96.1842C179.29 95.7503 178.674 95.4691 176.68 94.6882C175.597 94.2645 172.594 93.1303 170.74 93.0974C166.558 93.0207 161.715 92.9666 156.998 94.064C154.452 94.6569 150.545 96.4709 148.383 95.6978C146.565 95.0485 145.667 91.8654 145.19 89.0066C144.269 83.4996 145.245 76.8522 146.862 73.1279C147.278 72.1684 147.722 71.4369 148.377 70.6685Z" fill="#7F91D5"/>
<path fill-rule="evenodd" clip-rule="evenodd" d="M190.238 66.2559C188.947 65.4569 186.87 64.6862 184.839 64.9095C181.938 65.2298 179.846 66.873 178.479 68.4967C173.915 73.9199 172.692 86.3296 178.298 94.3124C178.834 95.0807 180.306 96.948 181.076 96.0433C181.399 95.9125 182.518 94.8379 182.621 94.7001C183.804 95.9822 185.19 96.944 186.759 97.4242C189.707 98.3265 193.113 96.601 194.716 94.4573C195.934 92.8265 196.689 90.5426 197.259 87.918C197.79 85.4821 198.066 83.4089 197.68 80.0135C196.995 73.9943 193.97 68.5672 190.238 66.2559Z" fill="#A2AFF1"/>
<path fill-rule="evenodd" clip-rule="evenodd" d="M186.818 77.5839C187.921 78.4776 186.816 79.8412 186.657 81.215C186.516 82.458 186.624 84.1655 186.912 85.6168C187.195 87.0376 187.595 88.6354 188.882 88.9989C190.464 87.5193 190.425 83.2914 189.305 79.484C188.77 77.6567 187.452 74.6044 185.84 74.8378C184.227 75.0712 183.821 78.2684 183.726 80.0386C183.54 83.4096 184.337 87.8741 186.067 90.5223C186.682 91.4629 187.718 92.4185 188.554 92.4208C192.544 92.4365 193.083 86.357 193.011 83.578C192.896 79.0736 191.134 74.5308 189.305 72.42C187.994 70.9044 186.349 69.6622 183.972 70.8112C182.916 71.3211 182.131 72.3354 181.508 73.3677C177.914 79.3164 179.963 91.7167 186.001 95.1215C187.381 95.8976 189.635 96.2172 191.546 94.9468C194.678 92.8626 195.835 87.7903 195.94 83.6391C196.122 76.4787 192.948 68.6377 187.496 67.0172C183.452 65.8165 179.974 68.9557 178.47 71.7213C175.756 76.7066 175.254 85.88 179.222 92.4866C180.501 94.6147 181.894 94.9899 181.105 96.0136C180.344 97.0004 178.842 95.0901 178.298 94.3124C172.692 86.3303 173.915 73.9199 178.479 68.4967C179.846 66.873 181.938 65.2298 184.839 64.9095C186.87 64.6862 188.948 65.4569 190.238 66.2559C193.97 68.5672 196.995 73.9951 197.68 80.0127C198.066 83.4081 197.79 85.4813 197.259 87.9172C196.689 90.5418 195.934 92.8266 194.716 94.4565C193.113 96.6002 189.707 98.3249 186.759 97.4234C178.816 94.9922 175.545 80.402 179.683 72.8006C180.738 70.8605 182.977 68.2915 186 68.4803C189.785 68.7176 192.8 73.2471 194.1 78.1196C195.446 83.1527 195.102 88.7623 193.019 91.7527C192.07 93.1148 190.097 94.61 187.859 94.1933C185.754 93.8025 183.82 90.8606 182.935 87.9047C181.735 83.9007 181.558 79.2624 182.451 76.4944C182.917 75.043 183.837 73.2071 185.793 72.9902C191.318 72.3745 194.456 89.4053 189.393 90.7384C185.297 91.8177 184.485 83.7832 184.948 80.6205C185.161 79.1668 185.519 77.5212 186.818 77.5839Z" fill="#7F91D5"/>
<path fill-rule="evenodd" clip-rule="evenodd" d="M152.454 85.2361C151.89 84.9173 151.456 84.6016 150.567 85.0183C148.148 86.1517 151.259 91.0399 153.075 90.7939C153.574 92.3808 154.125 93.8556 154.964 95.1112C155.215 95.4871 155.678 95.9383 155.678 95.9383C155.678 95.9383 156.535 104.198 156.674 106.934C156.674 106.934 157.703 115.676 163.93 115.319C170.875 114.921 170.205 106.041 170.205 106.041L169.499 94.4016C170.024 93.7374 170.349 92.687 170.638 91.8451C170.993 90.8127 171.107 89.9543 171.232 89.07C174.213 88.9956 175.469 83.7158 173.176 83.1221C172.533 82.9553 171.933 83.2631 171.617 83.5043C171.466 78.595 169.644 74.1172 166.51 72.3752C164.622 71.3257 161.864 70.7437 159.425 71.3727C156.343 72.17 154.479 74.4023 153.418 76.6588C152.294 79.0492 152.139 82.2034 152.454 85.2361Z" fill="#ECA47E"/>
<path fill-rule="evenodd" clip-rule="evenodd" d="M174.331 84.4617C174.551 85.9256 173.41 89.5168 171.771 89.5583C170.54 89.5872 170.145 86.6203 169.923 85.1588C169.702 83.6918 170.281 82.3313 170.281 82.3313C171.461 82.4754 172.044 82.2851 172.606 82.4096C173.879 82.6916 174.176 83.4459 174.331 84.4617Z" fill="#ECA47E"/>
<path d="M171.283 87.3237C171.261 87.3284 171.236 87.3276 171.214 87.3268C171.062 87.3119 170.953 87.1749 170.966 87.019C171.076 85.7948 171.647 84.8588 172.57 84.3865C172.706 84.3168 172.872 84.3724 172.94 84.511C173.009 84.6489 172.952 84.8181 172.817 84.8878C172.069 85.2708 171.607 86.047 171.514 87.0715C171.5 87.2031 171.405 87.3064 171.283 87.3237Z" fill="#D28255"/>
<path d="M173.115 87.0731C172.984 87.095 172.849 87.0096 172.811 86.8733C172.67 86.3666 172.263 85.9922 171.664 85.8144C171.517 85.7713 171.434 85.6154 171.476 85.4651C171.519 85.3162 171.669 85.2301 171.815 85.2747C172.605 85.5081 173.147 86.0204 173.338 86.7175C173.38 86.8686 173.296 87.0237 173.15 87.066C173.141 87.0684 173.129 87.0723 173.115 87.0731Z" fill="#D28255"/>
<path fill-rule="evenodd" clip-rule="evenodd" d="M149.447 87.2137C149.537 88.6917 151.409 91.9523 153.017 91.632C154.224 91.3931 153.989 88.4089 153.898 86.9302C153.807 85.4506 152.955 84.2476 152.955 84.2476C151.833 84.647 151.223 84.589 150.701 84.8342C149.516 85.3872 149.383 86.1877 149.447 87.2137Z" fill="#ECA47E"/>
<path d="M153.135 89.1128C153.159 89.1113 153.181 89.105 153.203 89.0987C153.349 89.0525 153.429 88.8951 153.38 88.7463C153.016 87.5714 152.264 86.7835 151.263 86.5242C151.114 86.4858 150.965 86.5759 150.927 86.7271C150.889 86.8759 150.979 87.0294 151.125 87.067C151.937 87.2777 152.552 87.9364 152.857 88.9162C152.897 89.0416 153.013 89.1199 153.135 89.1128Z" fill="#D28255"/>
<path d="M151.294 89.2686C151.427 89.26 151.54 89.1472 151.546 89.0047C151.578 88.4807 151.898 88.0256 152.449 87.7209C152.58 87.6473 152.631 87.4766 152.556 87.3387C152.483 87.204 152.318 87.1507 152.185 87.2275C151.463 87.6277 151.04 88.2473 150.998 88.9702C150.991 89.1269 151.108 89.26 151.257 89.2686C151.267 89.2686 151.278 89.2678 151.294 89.2686Z" fill="#D28255"/>
<path fill-rule="evenodd" clip-rule="evenodd" d="M155.678 95.9379C156.105 97.5318 157.283 98.933 158.253 99.6575C159.691 100.729 161.861 101.431 163.526 101.167C167.031 100.608 168.978 97.5279 169.499 94.4004C169.24 94.738 169.031 95.0849 168.851 95.3646C168.022 96.6655 166.54 98.0699 164.438 98.6738C160.858 99.7006 157.55 98.0848 155.678 95.9379Z" fill="#D28255"/>
<path d="M163.027 90.7444C163.006 90.753 162.977 90.7514 162.957 90.7538C162.31 90.7452 161.826 90.5635 161.48 90.1985C160.787 89.4599 160.83 88.1605 160.884 86.5204C160.921 85.4724 160.957 84.2873 160.808 83.0569C160.788 82.8282 160.945 82.619 161.163 82.5963C161.386 82.5689 161.596 82.7287 161.618 82.955C161.768 84.2521 161.729 85.4708 161.692 86.5462C161.648 87.938 161.607 89.1395 162.062 89.6283C162.249 89.8217 162.547 89.922 162.958 89.9212C163.187 89.929 163.359 90.1131 163.365 90.3402C163.363 90.5478 163.219 90.7146 163.027 90.7444Z" fill="#D28255"/>
<path fill-rule="evenodd" clip-rule="evenodd" d="M159.936 81.1871C160.027 81.5301 158.452 81.8779 157.247 82.2828C156.048 82.6932 155.19 83.1969 155.097 82.8577C155.001 82.5092 155.88 81.6805 157.084 81.2724C158.288 80.8659 159.837 80.8417 159.936 81.1871Z" fill="#32327F"/>
<path fill-rule="evenodd" clip-rule="evenodd" d="M162.512 80.8784C162.472 81.2544 164.28 81.2669 165.692 81.422C167.096 81.5818 168.142 81.9115 168.183 81.5418C168.222 81.1627 167.091 80.5056 165.681 80.3466C164.27 80.1907 162.551 80.504 162.512 80.8784Z" fill="#32327F"/>
<path d="M162.923 94.2506C162.872 94.2569 162.819 94.2616 162.767 94.2632C161.815 94.3078 160.925 93.7588 160.555 92.9035C160.463 92.6912 160.556 92.4437 160.764 92.3497C160.971 92.2565 161.214 92.3528 161.304 92.5643C161.541 93.1071 162.115 93.4533 162.731 93.4267C163.402 93.393 163.935 92.9481 164.187 92.1954C164.262 91.9761 164.494 91.8594 164.709 91.9338C164.923 92.0082 165.038 92.2463 164.964 92.4641C164.624 93.4893 163.868 94.148 162.923 94.2506Z" fill="#D28255"/>
<path d="M156.372 89.1141C155.584 89.1948 154.995 89.1493 154.622 88.9778C153.16 88.3105 152.9 85.5464 152.854 84.3888C152.844 84.1844 152.971 83.9979 153.164 83.9329C154.928 83.3361 156.961 83.0424 158.35 82.899C158.946 82.838 159.549 82.7902 160.145 82.762C160.264 82.7549 160.38 82.7972 160.47 82.881C160.56 82.9625 160.614 83.0776 160.618 83.2006C160.7 85.0216 160.615 87.2421 159.263 88.2721C158.727 88.6802 157.373 89.0115 156.372 89.1141ZM153.773 84.7021C153.89 86.5168 154.358 87.846 154.99 88.135C155.071 88.1726 155.403 88.2862 156.282 88.1953C157.322 88.0888 158.428 87.7575 158.721 87.5358C159.637 86.8364 159.766 85.1947 159.73 83.7097C159.299 83.7363 158.869 83.7732 158.44 83.817C156.663 83.9995 155.06 84.3026 153.773 84.7021Z" fill="white"/>
<path d="M167.109 88.0122C166.104 88.1156 164.712 88.0663 164.107 87.7757C162.582 87.041 162.068 84.8816 161.79 83.081C161.772 82.9588 161.801 82.8358 161.873 82.7371C161.944 82.6368 162.05 82.5719 162.169 82.5546C162.759 82.4614 163.359 82.3854 163.954 82.3243C165.345 82.1818 167.391 82.0573 169.241 82.2828C169.44 82.3071 169.602 82.4638 169.632 82.6666C169.813 83.8109 170.097 86.5726 168.793 87.5235C168.459 87.7671 167.891 87.9316 167.109 88.0122ZM162.759 83.3989C163.015 84.8613 163.459 86.4442 164.494 86.9439C164.828 87.1013 165.975 87.2008 167.019 87.0943C167.892 87.0042 168.197 86.8264 168.269 86.7731C168.833 86.3612 169.03 84.9639 168.793 83.1616C167.453 83.0316 165.823 83.0606 164.046 83.2431C163.616 83.2854 163.185 83.3371 162.759 83.3989Z" fill="white"/>
<path d="M171.856 82.3069C171.434 82.2779 170.68 82.2349 169.678 82.2059C165.995 82.0962 158.989 82.1816 152.94 83.9267C152.552 84.0387 152.172 84.1593 151.791 84.2846C151.89 84.5776 151.952 84.8822 151.977 85.194C152.23 85.1078 152.489 85.0256 152.747 84.9433C158.991 83.0424 166.435 83.015 170.023 83.1403C170.713 83.163 171.258 83.1943 171.625 83.2163C171.662 82.9022 171.738 82.5959 171.856 82.3069Z" fill="white"/>
<path fill-rule="evenodd" clip-rule="evenodd" d="M150.566 76.8713C149.782 78.8287 150.139 82.2037 151.02 83.7043C151.719 84.9011 152.228 85.5786 152.792 86.1606C153.471 84.1555 153.977 81.9522 153.966 79.1952C153.966 79.1952 155.703 79.3675 156.566 79.3848C161.682 79.4756 166.34 77.5473 169.555 75.6808C169.681 78.8772 170.367 81.7674 171.582 83.9957C172.752 82.8075 173.545 80.7413 173.395 78.3697C173.269 76.3701 172.532 74.4503 171.211 73.6726C170.776 70.4652 167.472 66.7393 165.348 67.7058C164.812 67.951 164.862 68.9943 165.231 69.5519C161.193 66.7362 153.984 68.3528 151.462 70.9861C149.889 72.6262 148.394 76.1962 150.566 76.8713Z" fill="#32327F"/>
<path fill-rule="evenodd" clip-rule="evenodd" d="M166.185 71.3862C164.593 72.6707 162.658 73.6412 160.53 74.2897C158.455 74.9226 156.118 75.5076 153.477 75.1599C157.841 74.097 162.104 72.8814 166.185 71.3862Z" fill="#8383C9"/>
<path fill-rule="evenodd" clip-rule="evenodd" d="M165.648 74.7905C164.424 75.674 162.86 76.3515 161.228 76.8246C159.599 77.2977 157.745 77.7481 155.574 77.3149C159.096 76.7009 162.673 76.162 165.648 74.7905Z" fill="#8383C9"/>
<path d="M155.939 86.4679C155.839 86.4781 155.736 86.4428 155.661 86.3629C155.532 86.2251 155.535 86.0066 155.67 85.8742C156.168 85.3847 157.003 84.8497 158.14 85.0722C158.324 85.1082 158.444 85.2891 158.408 85.4763C158.373 85.6635 158.194 85.7873 158.012 85.7504C157.158 85.5836 156.522 85.9956 156.139 86.3716C156.083 86.4287 156.012 86.4601 155.939 86.4679Z" fill="#32327F"/>
<path d="M166.987 85.3335C166.914 85.3414 166.838 85.3241 166.772 85.2811C166.324 84.9913 165.621 84.7163 164.815 85.0531C164.642 85.126 164.444 85.0414 164.373 84.8644C164.302 84.6881 164.384 84.4861 164.558 84.4132C165.629 83.9636 166.552 84.3185 167.135 84.6975C167.293 84.8002 167.339 85.0132 167.239 85.1745C167.181 85.2677 167.086 85.3234 166.987 85.3335Z" fill="#32327F"/>
<path fill-rule="evenodd" clip-rule="evenodd" d="M217.986 128.626C217.168 124.964 218.258 121.249 220.56 118.591C213.258 116.356 205.432 114.345 198.685 112.244C198.638 112.158 198.557 112.13 198.427 112.18C199.252 112.474 198.375 114.567 198.189 115.456C197.478 118.836 196.873 122.392 196.238 125.204C195.729 125.228 195.193 124.621 194.748 125.056C194.957 125.771 195.883 125.888 196.423 126.029C197.075 126.198 197.825 126.293 198.451 126.425C205.317 127.85 217.713 131.078 217.713 131.078C218.1 131.132 218.507 131.188 218.926 131.243C218.513 130.429 218.195 129.552 217.986 128.626Z" fill="#ECA47E"/>
<path fill-rule="evenodd" clip-rule="evenodd" d="M199.076 112.365C200.186 117.719 199.989 122.362 199.406 126.629L196.244 125.985C196.244 125.985 198.96 112.392 199.076 112.365Z" fill="#D28255"/>
<path fill-rule="evenodd" clip-rule="evenodd" d="M208.839 112.093C208.839 112.093 218.367 130.921 218.477 131.305C214.315 130.679 211.806 129.271 210.528 126.36C208.727 122.262 208.469 116.92 208.839 112.093Z" fill="#D28255"/>
<path d="M223.491 123.41C223.704 116.631 220.935 111.342 218.693 105.839C216.86 101.33 215.802 96.8318 214.659 92.267C214.59 91.9263 214.473 91.4869 214.347 91.0272C214.181 90.3794 214.013 89.7285 213.839 89.0761C213.837 89.0698 213.835 89.062 213.835 89.0557C214.403 87.577 215.24 86.1319 214.57 84.4033C214.566 84.3414 214.563 84.2772 214.559 84.2161C214.704 83.0608 214.962 80.9907 214.122 80.686C213.23 80.3617 212.405 81.6486 212.157 82.0669C212.174 81.734 212.394 80.9891 212.262 80.3774C212.189 80.0649 212.04 79.8566 211.91 79.7469C211.3 79.2386 210.154 80.2215 209.732 80.8615C209.749 78.7216 209.534 76.6735 209.207 74.4843C209.104 73.7676 209.143 72.7103 208.435 72.1714C207.612 72.6703 207.712 73.6525 207.497 74.4491C206.927 76.5677 206.631 78.778 206.498 80.9163C206.47 81.3416 206.568 81.8217 206.333 82.2149C205.442 80.0853 204.387 77.8945 203.259 75.6341C203.032 75.1767 202.165 73.3878 201.727 74.052C201.284 74.7224 201.48 75.7422 201.635 76.5928C202.019 78.7083 202.967 81.5961 203.653 83.4501C201.057 85.4152 203.328 89.4364 205.688 91.3326L206.087 93.3401C206.53 95.8088 206.973 98.4186 207.163 99.389C207.885 103.103 208.259 107.085 208.712 110.945C209.185 114.975 209.308 118.808 210.53 122.163C211.636 125.202 213.558 128.631 215.947 130.449C216.85 131.137 218.852 132.081 219.852 131.917C220.499 131.811 221.451 130.664 221.949 129.812C223.057 127.918 223.409 126.105 223.491 123.41Z" fill="#ECA47E"/>
<path fill-rule="evenodd" clip-rule="evenodd" d="M206.331 81.7716C206.483 81.0142 207.051 75.2503 207.664 73.1496C207.776 72.7643 207.932 72.2152 208.383 72.1392C208.882 72.0562 209.062 72.7157 209.133 73.0478C209.77 75.9466 209.554 78.3879 209.732 80.8614C209.113 81.8217 208.691 82.919 208.344 83.9599C208.239 84.2787 208.054 84.8035 208.029 84.9171C206.718 83.8855 205.152 82.6973 203.653 83.4508C202.873 81.4395 200.482 74.6895 201.767 73.9078C202.206 73.6407 202.698 74.2344 203.008 74.6934C203.681 75.6842 205.939 80.6774 206.331 81.7716Z" fill="#ECA47E"/>
<path fill-rule="evenodd" clip-rule="evenodd" d="M204.209 86.853C205.089 87.5587 207.625 89.4025 209.186 89.6899C209.87 89.8121 210.975 89.7847 211.297 88.9169C211.482 89.5254 211.536 90.1771 211.064 90.5593C210.29 91.1875 208.589 90.5836 207.629 90.0823C206.21 89.343 205.298 88.3263 204.308 87.0089L204.209 86.853Z" fill="#D28255"/>
<path fill-rule="evenodd" clip-rule="evenodd" d="M212.184 82.0457C212.08 82.8775 211.856 84.8277 212.2 85.853C212.354 86.3151 212.616 86.673 213.055 86.6049C213.763 86.4945 214.311 85.0533 214.542 84.3288C214.551 84.7486 214.351 85.7903 214.027 86.536C213.509 87.7273 212.783 89.4073 212.07 88.9836C211.105 88.4103 211.263 86.3268 211.399 85.2624C211.534 84.2254 211.85 82.8665 212.184 82.0457Z" fill="#D28255"/>
<path fill-rule="evenodd" clip-rule="evenodd" d="M210.206 87.139C209.483 86.3776 208.778 85.5294 208.027 84.9169C208.352 83.5744 208.843 82.0902 209.731 80.8621C209.536 81.274 209.112 82.3494 208.898 83.1013C208.703 83.7757 208.442 85.0367 209.066 85.3955C209.469 85.6273 210.054 85.1456 210.388 84.8636C211.385 84.0256 211.873 82.5257 212.225 81.5952C212.164 83.0653 211.244 85.4503 210.206 87.139Z" fill="#D28255"/>
<path d="M122.422 141.746L136.609 133.102L131.82 121.605L124.172 125.319L122.422 141.746Z" fill="#ECA47E"/>
<path fill-rule="evenodd" clip-rule="evenodd" d="M131.82 121.605L136.658 133.066L134.239 134.503L131.82 121.605Z" fill="#D28255"/>
<path d="M170.084 104.017C169.964 107.548 169.29 109.976 166.296 111.232C165.261 111.667 164.73 111.779 163.758 111.822C160.223 111.978 158.8 110.063 157.181 107.357C156.767 106.672 156.967 105.875 156.084 106.25C146.936 110.132 137.85 114.937 131.59 121.043L138.298 136.953C138.298 136.953 142.744 134.628 144.943 133.548C144.73 141.175 144.011 148.659 143.792 156.12C143.717 158.679 143.371 161.244 143.577 163.853C151.617 163.543 159.772 163.362 167.911 163.022C176.098 162.682 184.296 162.408 192.305 161.931C189.887 149.176 187.827 136.655 185.389 123.888C187.989 124.659 195.283 126.503 196.16 126.462C196.425 125.055 196.709 123.661 196.987 122.262C197.132 121.53 197.487 119.708 197.634 118.979C197.837 117.998 198.056 117.026 198.264 116.049C198.569 114.617 198.867 113.18 199.187 111.756C191.041 107.859 180.307 104.535 170.084 104.017Z" fill="#FDC400"/>
<path fill-rule="evenodd" clip-rule="evenodd" d="M156.831 105.869C156.831 105.869 158.66 111.744 164.466 111.169C168.463 110.772 169.962 107.548 170.084 104.017L172.604 104.239C171.938 107.68 171.819 111.379 168.502 112.947C160.99 116.499 156.525 112.334 154.174 106.941L156.831 105.869Z" fill="#EDAD0F"/>
<path fill-rule="evenodd" clip-rule="evenodd" d="M181.594 122.665L185.388 123.889C185.388 123.889 190.209 149.353 192.304 161.932C191.911 161.704 191.405 160.775 191.05 160.117C188.66 155.695 186.397 150.026 184.891 143.955C183.097 136.719 182.035 129.282 181.594 122.665Z" fill="#EDAD0F"/>
<path fill-rule="evenodd" clip-rule="evenodd" d="M148.537 131.721C149.134 131.523 148.966 132.463 148.979 132.61C149.196 135.067 147.609 158.556 143.575 163.853C143.418 161.251 144.594 141.139 144.941 133.549C146.108 132.92 147.352 132.339 148.537 131.721Z" fill="#EDAD0F"/>
<path d="M150.144 108.443C148.982 108.576 142.357 112.754 139.485 114.601C136.447 116.556 133.443 119.171 131.588 121.044C131.918 121.893 132.722 123.703 133.005 124.402C134.814 122.956 143.167 115.867 147.947 112.921L150.144 108.443Z" fill="#EDAD0F"/>
<path fill-rule="evenodd" clip-rule="evenodd" d="M83.2224 92.7132C83.2114 93.8528 82.2981 94.7707 81.1797 94.7598L74.4712 93.6632C73.3543 93.6523 72.4567 92.7218 72.4669 91.579L72.6415 73.2653C72.6502 72.1233 73.5658 71.2069 74.6827 71.2179L81.3919 72.3129C82.508 72.3238 83.4048 73.2574 83.397 74.3978L83.2224 92.7132Z" fill="#A2AFF1"/>
<path d="M81.5848 72.3271C82.0532 72.7188 82.3547 73.3172 82.3477 73.9853L82.1715 92.6531C82.1628 93.6204 81.519 94.4294 80.6465 94.673L81.1791 94.76C82.2976 94.7702 83.2108 93.853 83.2218 92.7134L83.3957 74.3988C83.4051 73.325 82.6101 72.4368 81.5848 72.3271Z" fill="#4D57B0"/>
<path d="M73.766 73.5591C73.5655 73.5004 73.4292 73.303 73.4566 73.0853C73.4825 72.8472 73.6971 72.678 73.9297 72.7062L74.6135 72.7908C74.8485 72.8205 75.0121 73.0367 74.9871 73.274C74.9565 73.5137 74.7435 73.6845 74.5109 73.6547L73.8271 73.5701C73.8067 73.5662 73.7864 73.5623 73.766 73.5591Z" fill="#4D57B0"/>
<path d="M75.423 73.7361C75.2233 73.6813 75.0862 73.4824 75.1152 73.2646C75.1426 73.0265 75.3541 72.8566 75.5867 72.8855L75.7112 72.9012C75.9446 72.9286 76.1107 73.1456 76.0825 73.3868C76.0543 73.6241 75.8413 73.7933 75.6079 73.7643L75.4833 73.7502C75.4645 73.7448 75.4441 73.7448 75.423 73.7361Z" fill="#4D57B0"/>
<path d="M198.898 116.075C198.922 116.035 198.939 115.99 198.948 115.943C199.119 115.163 197.521 113.333 196.709 112.247C194.082 108.732 191.288 105.428 188.199 102.952C183.632 99.2887 176.793 97.0008 169.699 97.6681C169.716 97.766 170.081 104.095 170.085 104.017C175.517 104.298 182.822 106.227 183.801 113.146C183.93 114.06 183.732 116.465 184.478 116.5C185.215 116.534 185.568 114.079 185.957 113.015C186.953 115.19 189.35 122.35 190.138 121.954C191.036 121.506 189.746 116.263 189.211 113.992C190.281 115.906 193.332 121.415 194.089 120.916C195.111 120.244 191.708 114.178 191.448 113.125C192.236 113.957 195.862 120.405 196.886 119.484C196.974 119.406 197 119.261 196.979 119.066C196.965 118.936 196.922 118.777 196.867 118.604C196.355 117.002 194.241 113.746 193.214 111.821C193.33 111.795 198.274 117.092 198.898 116.075Z" fill="#D28255"/>
<path d="M124.311 117.934C124.718 118.236 143.361 112.126 143.361 112.126C148.712 108.954 156.677 105.862 156.883 106.023L156.055 99.5477C142.168 100.994 142.071 102.034 135.23 103.184C131.623 103.79 128.16 104.239 115.706 105.038C111.266 105.322 97.606 105.6 93.3592 105.897C80.8861 106.778 69.7422 110.497 58.7439 112.826C58.9436 111.919 59.6015 111.245 60.102 110.472C63.5451 105.149 66.7995 98.8239 69.197 92.1781C72.1099 91.8758 73.0639 89.5668 73.9482 87.1897C75.8569 87.4199 78.7205 89.5441 79.3768 88.4381C79.9572 87.4599 78.1072 86.5482 77.2057 86.0814C76.1804 85.555 74.9852 85.2472 73.8111 84.9739C75.1512 84.6661 76.5728 84.8673 77.884 85.1125C79.1136 85.3396 80.7459 86.2553 81.2762 85.2511C81.9897 83.9055 77.2057 82.7549 74.3547 82.3406C75.3972 81.8409 76.7749 81.5198 78.1542 81.2315C79.4575 80.9605 81.555 81.2221 81.6842 79.9854C81.8017 78.8928 79.6925 79.033 78.4275 79.015C77.06 78.9962 75.5773 79.1747 74.6272 79.4301C75.0643 78.7557 75.9266 77.9975 76.7984 77.2127C77.5315 76.5525 79.0643 75.3016 78.5622 74.5802C78.0312 73.815 75.9822 75.0189 75.0353 75.6878C70.234 79.0714 66.9679 84.941 63.0885 89.407C56.8116 96.6387 50.5715 103.896 45.4429 112.965C44.1388 115.271 42.7328 117.899 42.4564 120.309C41.5494 128.242 52.7027 126.916 59.56 126.408C68.4388 125.746 78.0242 124.424 85.8926 123.081C87.2351 129.355 88.5517 135.94 89.9662 142.483C90.4315 144.634 91.0526 146.972 91.0526 149.133C91.0526 153.052 89.2104 156.531 87.8022 159.836C90.6344 159.183 93.6122 158.697 96.6763 158.272C106.42 156.911 117.23 155.641 127.349 154.845C126.853 154.252 126.334 153.642 125.802 153.014C124.486 151.457 122.551 149.611 122.273 147.332C121.878 144.084 122.711 139.955 123.087 136.799C123.516 133.204 124.069 121.01 124.311 117.934Z" fill="#D28255"/>
<path fill-rule="evenodd" clip-rule="evenodd" d="M112.338 281.346L122.587 281.168L123.926 294.207L111.537 294.219L112.338 281.346Z" fill="#D28255"/>
<path fill-rule="evenodd" clip-rule="evenodd" d="M123.497 287.563C123.006 287.591 121.275 287.553 120.631 288.197C119.964 288.867 120.141 289.965 120.095 291.358C116.813 291.205 115.947 287.901 111.574 288.603C111.031 291.999 111.011 295.925 111.042 299.906C119.819 300.079 128.927 299.912 137.831 299.956C137.651 299.044 137.406 298.218 137.056 297.586C135.984 295.66 134.204 294.72 132.172 294.032C129.431 293.113 126.218 292.264 124.661 289.933C124.226 289.284 123.924 288.499 123.497 287.563Z" fill="#32327F"/>
<path d="M129.759 293.226C130.567 293.514 131.389 293.77 132.171 294.032C134.203 294.72 135.983 295.66 137.055 297.586C137.404 298.218 137.65 299.044 137.83 299.956C133.831 299.935 129.79 299.958 125.756 299.974C125.973 296.293 127.917 294.299 129.759 293.226Z" fill="#BAC6F5"/>
<path d="M116.446 299.972C114.636 299.96 112.832 299.94 111.043 299.906C111.025 297.382 111.028 294.88 111.167 292.521C112.926 293.331 115.894 295.37 116.446 299.972Z" fill="#BAC6F5"/>
<path fill-rule="evenodd" clip-rule="evenodd" d="M64.6261 247.993L69.0671 257.425L58.0233 264.115L52.8359 252.63L64.6261 247.993Z" fill="#D28255"/>
<path fill-rule="evenodd" clip-rule="evenodd" d="M63.7564 260.944C63.5269 260.501 62.8369 258.879 61.9949 258.551C61.1208 258.213 60.2169 258.835 58.9575 259.375C57.7215 256.267 60.3007 254.083 57.8492 250.321C54.6003 251.237 51.0976 252.859 47.5684 254.551C51.082 262.764 55.0358 271.141 58.7178 279.418C59.4541 278.87 60.0869 278.297 60.5028 277.709C61.7693 275.91 61.8617 273.867 61.6252 271.694C61.2978 268.767 60.7112 265.434 62.1351 263.016C62.5291 262.339 63.1016 261.731 63.7564 260.944Z" fill="#32327F"/>
<path d="M61.3352 269.12C61.4174 269.99 61.5317 270.859 61.6249 271.693C61.8615 273.866 61.7691 275.909 60.5026 277.708C60.0867 278.296 59.4538 278.869 58.7176 279.417C57.0649 275.699 55.3567 271.961 53.6562 268.226C57.0234 266.89 59.6112 267.86 61.3352 269.12Z" fill="#BAC6F5"/>
<path d="M49.7669 259.589C49.0221 257.904 48.285 256.224 47.5684 254.55C49.8076 253.478 52.0344 252.436 54.1922 251.58C54.2063 253.549 53.6322 257.155 49.7669 259.589Z" fill="#BAC6F5"/>
<path d="M114.807 233.803L110.799 282.829C112.43 282.819 114.061 282.822 115.692 282.829C118.535 282.842 121.379 282.845 124.223 282.865C126.196 278.331 127.76 273.585 129.385 268.426C130.441 265.074 130.997 261.338 131.229 257.499C131.552 252.201 130.715 248.753 130.685 243.365C130.635 233.367 133.502 225.538 136.116 217.59C138.701 209.729 138.661 202.828 139.009 193.316C139.591 177.515 136.107 166.317 129.33 157.309C129.132 157.046 128.921 156.775 128.702 156.5C128.281 155.969 127.825 155.416 127.345 154.844C117.227 155.641 106.416 156.911 96.6729 158.272C93.6089 158.697 90.631 159.183 87.7988 159.836C87.6053 160.29 87.4197 160.742 87.2481 161.19C87.2348 161.224 87.2223 161.259 87.209 161.294C85.2799 166.363 81.4655 188.621 95.9335 212.45C99.1072 217.676 103.688 224.424 97.811 226.772C79.3249 234.156 61.4043 247.382 61.4043 247.382L69.1349 261.795C96.0667 250.046 110.389 241.925 114.807 233.803Z" fill="#DB300E"/>
<path fill-rule="evenodd" clip-rule="evenodd" d="M109.878 171.626C109.788 171.626 109.696 171.626 109.607 171.626C109.134 173.611 109.788 175.686 110.149 177.586C111.251 183.383 112.744 188.989 113.95 194.908C114.725 198.72 115.33 202.826 115.988 206.965C116.647 211.127 120.331 226.643 114.055 235.1C120.341 230.839 121.1 216.269 119.786 204.33C119.106 198.148 117.789 192.271 116.121 186.87C114.431 181.396 112.678 176.175 110.42 171.626C110.111 171.817 109.907 171.269 109.878 171.626Z" fill="#C01A05"/>
<path fill-rule="evenodd" clip-rule="evenodd" d="M107.884 224.795C108.174 224.581 105.422 226.607 108.29 230.616C109.053 231.679 110.374 232.758 111.549 232.416C111.773 231.073 110.668 229.939 110.057 228.813C109.339 227.492 108.989 226.498 108.156 224.795C108.064 224.795 107.973 224.795 107.884 224.795Z" fill="#C01A05"/>
<path fill-rule="evenodd" clip-rule="evenodd" d="M118.336 238.792C119.514 240.356 122.158 238.618 123.358 237.267C124.569 235.904 125.205 233.896 125.395 232.416C124.216 230.58 122.285 233.173 121.416 234.257C120.172 235.809 118.524 237.237 118.336 238.792Z" fill="#C01A05"/>
<path fill-rule="evenodd" clip-rule="evenodd" d="M109.712 173.774C109.748 173.882 109.785 173.99 109.814 174.102C110.114 175.287 110.475 176.468 110.803 177.646C113.137 174.043 113.226 166.911 112.551 162.696C112.204 160.522 111.873 158.502 111.322 157.058C110.518 157.059 109.861 157.23 109.086 157.263C109.815 162.065 111.165 168.479 109.712 173.774Z" fill="#C01A05"/>
<path d="M132.77 162.588C132.275 161.7 131.751 160.833 131.202 159.986C125.276 160.42 124.072 161.248 121.359 155.363C121.356 155.363 121.353 155.364 121.349 155.364C120.44 155.449 119.527 155.538 118.613 155.629C121.258 162.832 127.154 163.03 132.77 162.588Z" fill="#C01A05"/>
<path d="M100.684 158.345C99.4035 158.375 98.3531 158.642 97.0976 158.696C94.6852 161.682 91.2562 163.59 86.4205 164.053C86.2387 164.859 86.0617 165.781 85.9043 166.808C92.3527 166.386 97.1375 165.005 100.684 158.345Z" fill="#C01A05"/>
<path d="M87.8004 159.836C87.7487 159.957 87.6993 160.078 87.6484 160.199C100.915 158.516 114.253 156.736 127.533 155.069C127.471 154.994 127.41 154.92 127.347 154.844C126.851 154.252 126.332 153.642 125.8 153.014C124.868 151.911 123.627 150.662 122.883 149.218L90.3608 153.48C89.6958 155.704 88.6674 157.803 87.8004 159.836Z" fill="#32327F"/>
<path fill-rule="evenodd" clip-rule="evenodd" d="M128.777 252.697C127.463 251.557 126.976 256.779 128.165 256.971C129.557 257.192 129.358 253.78 128.895 252.819C128.866 252.759 128.823 252.737 128.777 252.697Z" fill="white"/>
<path fill-rule="evenodd" clip-rule="evenodd" d="M128.883 258.986C127.72 258.273 127.127 262.657 128.483 262.525C129.513 262.426 129.685 259.477 128.883 258.986Z" fill="white"/>
<path fill-rule="evenodd" clip-rule="evenodd" d="M105.267 130.588C104.775 128.839 103.09 125.865 101.717 126.199C104.116 128.054 104.89 133.005 105.098 133.663C105.881 131.447 106.652 127.66 108.924 125.929C107.221 124.864 106.056 128.859 105.267 130.588Z" fill="#A5613F"/>
<path fill-rule="evenodd" clip-rule="evenodd" d="M44.1495 120.397C43.656 123.031 45.5726 124.275 47.0545 124.275C45.7935 122.507 44.1698 120.437 44.1495 120.397Z" fill="#A5613F"/>
<path d="M52.0059 114.568L60.3975 110.018L58.748 112.826C58.795 112.817 58.8443 112.806 58.8929 112.795C57.4259 113.38 52.0059 114.568 52.0059 114.568Z" fill="#A5613F"/>
<path d="M90.6547 121.982L86.3187 125.087C86.1769 124.423 86.0375 123.747 85.8965 123.089L90.6547 121.982Z" fill="#A5613F"/>
<path d="M120.533 116.323C120.533 116.323 124.478 118.055 124.314 117.934C124.25 118.721 124.169 119.531 124.073 120.364C124.077 120.581 120.533 116.323 120.533 116.323Z" fill="#A5613F"/>
<path fill-rule="evenodd" clip-rule="evenodd" d="M105.155 149.96C104.948 150.825 105.935 150.802 106.21 151.272C106.553 151.857 106.069 153.524 106.759 153.195C108.114 152.551 106.816 148.315 105.294 149.722C105.233 149.78 105.201 149.879 105.155 149.96Z" fill="#A5613F"/>
<path d="M113.779 120.902L114.602 105.099L115.279 105.031L114.477 120.947L113.779 120.902Z" fill="#A2AFF1"/>
<path d="M96.4715 121.09L95.6797 105.808C95.9139 105.805 96.1465 105.799 96.3807 105.799L97.1726 121.041L96.4715 121.09Z" fill="#A2AFF1"/>
<path fill-rule="evenodd" clip-rule="evenodd" d="M122.794 134.96C122.041 132.525 121.037 130.315 119.848 128.107C118.742 126.057 117.474 124.003 115.981 122.138C115.577 121.634 114.745 120.364 114.2 120.373C113.423 120.387 113.278 121.398 113.032 122.086C112.306 124.129 111.534 126.49 110.796 128.42C109.954 130.612 109.008 132.264 108.303 134.545C107.585 136.865 105.054 139.297 102.693 134.545C101.633 132.411 101.043 130.612 100.201 128.42C99.4621 126.49 98.6922 124.129 97.9645 122.086C97.7209 121.398 97.5713 120.387 96.7944 120.373C96.25 120.365 95.4174 121.634 95.0141 122.138C93.5212 124.004 92.2539 126.057 91.1495 128.107C89.9598 130.315 88.9549 132.525 88.2006 134.96C87.9414 135.799 87.6516 136.699 87.6406 137.608C87.7659 137.674 89.345 156.29 89.345 156.29L125.069 152.17C125.069 152.17 123.183 137.699 123.355 137.608C123.343 136.699 123.055 135.799 122.794 134.96Z" fill="#A2AFF1"/>
<path fill-rule="evenodd" clip-rule="evenodd" d="M118.469 129.999C119.566 130.141 118.632 127.379 117.867 128.168C117.466 128.578 118.08 129.625 118.469 129.999Z" fill="white"/>
<path fill-rule="evenodd" clip-rule="evenodd" d="M119.994 131.202C119.841 131.025 119.43 130.74 119.1 131.086C118.67 131.531 118.993 132.748 119.033 133.253C119.078 133.87 118.894 135.051 119.513 135.348C120.391 135.772 120.388 133.974 120.364 133.355C120.349 133.025 120.304 132.705 120.28 132.427C120.235 131.954 120.293 131.548 119.994 131.202Z" fill="white"/>
<path fill-rule="evenodd" clip-rule="evenodd" d="M92.3973 130.589C92.554 131.352 92.1248 132.59 91.6313 133.778C91.4199 134.286 91.0627 135.103 90.5943 134.963C90.0366 134.794 90.2928 133.797 90.3891 133.443C90.6844 132.319 91.271 131.019 91.7778 130.424C91.9423 130.349 92.247 130.442 92.3973 130.589Z" fill="white"/>
<path fill-rule="evenodd" clip-rule="evenodd" d="M92.7854 134.197C94.008 134.318 93.3007 136.967 92.3514 136.579C91.941 136.415 91.8149 135.003 92.1917 134.443C92.3256 134.243 92.5708 134.175 92.7854 134.197Z" fill="white"/>
<path d="M92.8008 142.292C93.9161 143.625 95.7951 144.525 98.0078 144.767C98.5325 144.824 99.0557 144.842 99.5711 144.824C102.315 144.728 104.823 143.603 106.11 141.892C106.087 141.888 106.064 141.884 106.041 141.88C104.173 142.623 96.8188 143.536 92.8008 142.292Z" fill="#7F91D5"/>
<path d="M114.201 141.625C111.505 142.212 108.717 142.25 105.996 141.856C107.122 142.787 108.683 143.415 110.466 143.61C110.991 143.667 111.514 143.685 112.029 143.667C115.115 143.56 117.905 142.151 118.992 140.068C117.543 140.93 115.927 141.25 114.201 141.625Z" fill="#7F91D5"/>
<path fill-rule="evenodd" clip-rule="evenodd" d="M114.556 157.813C114.618 158.257 115.022 158.566 115.457 158.502C115.892 158.437 116.194 158.024 116.132 157.581L115.443 152.735C115.38 152.291 114.977 151.984 114.542 152.048C114.106 152.111 113.806 152.524 113.867 152.968L114.556 157.813Z" fill="white"/>
<path fill-rule="evenodd" clip-rule="evenodd" d="M104.81 159.217C104.872 159.66 105.276 159.97 105.712 159.905C106.146 159.84 106.448 159.428 106.384 158.984L105.697 154.138C105.634 153.695 105.231 153.386 104.795 153.451C104.361 153.515 104.058 153.928 104.122 154.372L104.81 159.217Z" fill="white"/>
<path fill-rule="evenodd" clip-rule="evenodd" d="M106.829 153.82C106.829 153.82 106.83 153.821 106.83 153.822C106.83 153.828 106.83 153.833 106.831 153.84L107.466 158.314C107.47 158.341 107.478 158.365 107.485 158.392C107.48 158.445 107.481 158.5 107.488 158.555C107.538 158.966 107.897 159.259 108.29 159.209L112.577 158.661C112.969 158.61 113.248 158.238 113.197 157.826C113.196 157.82 113.194 157.814 113.193 157.807C113.2 157.747 113.201 157.685 113.192 157.621L112.557 153.147C112.554 153.134 112.551 153.123 112.548 153.111C112.547 153.103 112.549 153.096 112.548 153.09C112.496 152.678 112.137 152.386 111.744 152.435L107.452 152.984C107.104 153.028 106.848 153.325 106.827 153.678C106.825 153.718 106.826 153.757 106.83 153.796C106.829 153.805 106.829 153.812 106.829 153.82ZM108.854 157.625L108.716 156.655L111.517 156.298L111.655 157.267L108.854 157.625ZM111.193 154.018L111.307 154.811L108.505 155.17L108.393 154.377L111.193 154.018Z" fill="white"/>
<path d="M100.482 72.2147C100.482 72.2147 95.1091 70.4508 91.5822 75.4823C88.056 80.5147 85.7447 99.2255 92.4477 104.794L93.1862 102.91C93.1862 102.91 93.1134 106.695 100.253 106.892C107.391 107.088 100.482 72.2147 100.482 72.2147Z" fill="#32327F"/>
<path fill-rule="evenodd" clip-rule="evenodd" d="M111.801 95.3058L113.074 108.568C113.074 108.568 112.292 110.379 110.531 112.034C109.875 111.839 109.18 111.82 108.503 112.051C108.26 112.133 107.102 112.257 107.69 112.266C107.33 112.268 106.972 112.265 106.614 112.236C105.631 112.158 104.657 112.017 103.678 111.912C102.665 111.802 101.636 111.851 100.627 111.936C100.458 109.886 99.4015 99.8173 99.4015 99.8173C96.4268 100.779 93.5327 98.9534 92.2795 97.0987C91.0498 95.2776 90.4326 92.8417 90.5854 90.1521C90.6433 89.1636 90.8948 88.176 91.0248 87.1147C91.3122 84.7767 91.6302 82.6948 92.278 80.8503C92.8818 79.1264 93.9846 77.6539 95.2018 76.5895C97.0338 74.9838 99.382 73.9829 102.311 73.8286C108.404 73.5074 112.349 76.6106 114.443 80.295C115.886 82.8311 116.611 86.8852 115.087 90.4975C114.902 90.9369 114.365 91.5792 114.365 91.5792C114.465 91.8517 114.401 92.4157 114.35 92.6632C114.106 93.8435 113.263 95.0137 111.801 95.3058Z" fill="#D28255"/>
<path fill-rule="evenodd" clip-rule="evenodd" d="M105.306 97.3159C103.567 98.3858 101.553 99.2975 99.3965 99.8176L99.6385 101.922C102.036 101.128 104.011 99.5615 105.306 97.3159Z" fill="#A5613F"/>
<path d="M95.5043 91.4814C95.4855 91.4775 95.4628 91.4681 95.4424 91.4642C94.8824 91.237 94.5213 90.9151 94.3404 90.482C93.9793 89.6032 94.4414 88.4886 95.0226 87.0804C95.3939 86.1828 95.8121 85.1661 96.0847 84.0477C96.1403 83.8417 96.3447 83.7132 96.5437 83.7673C96.7457 83.8189 96.8726 84.0273 96.8194 84.2333C96.5296 85.4105 96.098 86.4569 95.7189 87.3788C95.2231 88.5717 94.797 89.604 95.0344 90.182C95.1323 90.4138 95.3555 90.6018 95.7142 90.7428C95.91 90.8235 96.0024 91.0444 95.9304 91.2425C95.863 91.4211 95.6829 91.5166 95.5043 91.4814Z" fill="#A5613F"/>
<path d="M95.3877 95.9373C93.9199 95.7149 93.8353 93.5445 93.9285 93.355C94.0186 93.1678 94.2473 93.0871 94.4353 93.1803C96.4169 94.1797 97.3286 93.0746 97.3717 93.0284C97.5017 92.8616 97.7797 92.7973 97.898 92.9657C98.4032 93.6683 97.125 96.2828 95.3877 95.9373Z" fill="#A5613F"/>
<path fill-rule="evenodd" clip-rule="evenodd" d="M91.1702 83.7092C91.1827 84.0178 92.1477 84.2214 93.3218 84.1627C94.4974 84.1008 95.4381 83.7993 95.4248 83.4883C95.4067 83.175 94.4449 82.9682 93.2685 83.0325C92.0944 83.092 91.1514 83.392 91.1702 83.7092Z" fill="#32327F"/>
<path fill-rule="evenodd" clip-rule="evenodd" d="M92.4882 86.0103C92.4123 86.539 92.6614 87.0183 93.0444 87.0684C93.4234 87.1272 93.7955 86.7371 93.8683 86.2069C93.9404 85.6751 93.6897 85.2012 93.313 85.1464C92.9308 85.0884 92.5611 85.4753 92.4882 86.0103Z" fill="#32327F"/>
<path fill-rule="evenodd" clip-rule="evenodd" d="M98.1656 83.7054C98.0576 84.0086 98.8948 84.5913 100.034 85.008C101.169 85.427 102.18 85.5163 102.285 85.2171C102.391 84.9124 101.555 84.3297 100.417 83.9083C99.2763 83.4924 98.2714 83.4023 98.1656 83.7054Z" fill="#32327F"/>
<path fill-rule="evenodd" clip-rule="evenodd" d="M98.6334 86.6348C98.5535 87.1979 98.8167 87.7117 99.2248 87.7705C99.6313 87.8269 100.022 87.4125 100.104 86.8462C100.181 86.2807 99.914 85.7724 99.5083 85.7137C99.1026 85.6557 98.711 86.0685 98.6334 86.6348Z" fill="#32327F"/>
<path d="M97.3395 74.2889C97.3395 74.2889 94.4117 78.7111 100.475 83.8406L100.093 81.2191C100.093 81.2191 101.972 84.6238 108.005 87.5351C108.005 87.5351 107.443 100.954 100.589 106.438C100.589 106.438 104.097 104.81 107.55 98.1465C107.55 98.1465 104.56 106.187 102.456 107.252C102.456 107.252 109.73 109.365 112.826 106.105C115.924 102.846 120.252 88.0709 116.056 79.7575C111.861 71.4442 102.737 68.3097 97.3395 74.2889Z" fill="#32327F"/>
<path fill-rule="evenodd" clip-rule="evenodd" d="M103.133 75.2356C105.036 75.9523 106.856 77.1326 108.507 78.6474C110.119 80.1262 111.827 81.8571 112.912 84.3392C109.748 81.0903 106.51 78.0098 103.133 75.2356Z" fill="#8383C9"/>
<path fill-rule="evenodd" clip-rule="evenodd" d="M106.256 73.926C107.633 74.5315 109.014 75.5411 110.261 76.7167C111.507 77.8892 112.849 79.2693 113.619 81.3864C111.269 78.6372 108.953 75.8035 106.256 73.926Z" fill="#8383C9"/>
<path fill-rule="evenodd" clip-rule="evenodd" d="M113.057 90.6029C113.02 92.0832 111.29 95.1809 109.652 95.1543C107.22 95.1151 109.442 87.7722 109.442 87.7722C109.442 87.7722 111.185 88.0464 111.716 88.2711C112.92 88.7787 113.082 89.5752 113.057 90.6029Z" fill="#D28255"/>
<path d="M109.559 92.8674C109.536 92.8674 109.512 92.8627 109.49 92.858C109.343 92.8157 109.259 92.6614 109.299 92.5102C109.621 91.3252 110.345 90.5082 111.336 90.2098C111.482 90.166 111.636 90.2505 111.679 90.3994C111.722 90.5474 111.637 90.7033 111.492 90.7479C110.69 90.9892 110.099 91.669 109.83 92.6614C109.794 92.7883 109.682 92.8721 109.559 92.8674Z" fill="#A5613F"/>
<path d="M111.402 92.953C111.269 92.9507 111.152 92.8426 111.138 92.7016C111.087 92.1776 110.751 91.7351 110.192 91.4516C110.054 91.3819 110 91.2143 110.068 91.0741C110.137 90.9354 110.3 90.8782 110.435 90.948C111.172 91.3208 111.616 91.9231 111.684 92.6437C111.698 92.8003 111.589 92.9374 111.438 92.9523C111.429 92.9531 111.416 92.9538 111.402 92.953Z" fill="#A5613F"/>
<path fill-rule="evenodd" clip-rule="evenodd" d="M221.288 120.139C219.887 119.113 219.819 124.358 221.018 124.45C222.424 124.555 221.954 121.17 221.414 120.251C221.382 120.193 221.336 120.175 221.288 120.139Z" fill="white"/>
<path fill-rule="evenodd" clip-rule="evenodd" d="M221.087 126.087C220.307 125.363 219.204 128.612 220.257 128.721C221.055 128.806 221.625 126.586 221.087 126.087Z" fill="white"/>
<path fill-rule="evenodd" clip-rule="evenodd" d="M156.529 106.023C149.853 118.028 148.194 128.505 146.494 140.499C146.398 141.179 145.811 141.946 145.027 142.079C144.026 141.953 143.949 140.739 143.834 140.003C142.246 129.89 145.117 118.352 145.962 115.329C146.85 112.149 149.448 108.513 152.124 106.854C153.314 106.115 155.3 106.159 156.529 106.023Z" fill="#32327F"/>
<path d="M146.083 126.298L143.762 125.947C143.253 125.866 142.972 127.052 143.625 127.346C143.838 127.44 143.947 127.618 144.065 127.823C144.423 128.456 144.521 129.328 144.887 129.813C145.038 130.017 145.24 130.148 145.526 130.166C145.805 130.233 146.037 130.167 146.238 130.016C146.725 129.657 147.065 128.85 147.585 128.351C147.757 128.188 147.95 128.055 148.18 128.034C148.797 127.98 148.81 126.84 148.402 126.659C148.139 126.544 146.083 126.298 146.083 126.298Z" fill="white"/>
<path d="M148.981 125.534C148.91 126.019 148.469 126.355 147.992 126.283L144.361 125.734C143.886 125.662 143.557 125.209 143.627 124.724C143.699 124.239 144.142 123.903 144.618 123.974L148.246 124.525C148.724 124.597 149.052 125.049 148.981 125.534Z" fill="white"/>
<path d="M171.363 104.213C171.901 109.492 172.204 111.259 173.583 115.329C174.639 118.446 178.992 130.395 186.322 138.107C186.854 138.668 187.637 139.664 188.57 139.158C189.166 138.561 189.217 137.542 188.899 136.898C183.947 126.891 178.259 116.789 176.091 104.725C174.541 103.391 171.493 104.072 171.363 104.213Z" fill="#32327F"/>
<path d="M179.839 124.259L177.646 125.113C177.162 125.297 177.486 126.471 178.198 126.399C178.427 126.377 178.609 126.477 178.81 126.598C179.425 126.97 179.929 127.682 180.479 127.923C180.707 128.025 180.948 128.038 181.205 127.911C181.481 127.829 181.652 127.656 181.754 127.425C182.007 126.87 181.917 125.996 182.132 125.3C182.202 125.073 182.309 124.86 182.499 124.727C183.012 124.372 182.478 123.371 182.033 123.418C181.749 123.448 179.839 124.259 179.839 124.259Z" fill="white"/>
<path d="M182 122.146C182.17 122.606 181.944 123.119 181.495 123.293L178.066 124.625C177.617 124.8 177.112 124.571 176.942 124.112C176.772 123.651 176.996 123.138 177.445 122.964L180.875 121.633C181.324 121.457 181.827 121.688 182 122.146Z" fill="white"/>
<path fill-rule="evenodd" clip-rule="evenodd" d="M149.741 111.974C149.019 110.477 146.931 115.244 147.855 115.807C148.938 116.465 149.873 113.183 149.799 112.127C149.796 112.062 149.767 112.027 149.741 111.974Z" fill="white"/>
<path fill-rule="evenodd" clip-rule="evenodd" d="M147.599 117.355C146.944 116.421 145.535 118.728 146.577 119.006C147.367 119.219 148.05 117.999 147.599 117.355Z" fill="white"/>
</svg>
