<svg width="288" height="251" viewBox="0 0 288 251" fill="none" xmlns="http://www.w3.org/2000/svg">
<g opacity="0.4">
<path d="M286.483 152.71C282.494 139.953 272.184 130.387 262.855 120.813C253.528 111.24 244.344 99.9745 243.695 86.6234C242.763 67.4285 259.779 50.5441 258.031 31.4062C256.51 14.7604 240.276 2.24711 223.67 0.335434C207.065 -1.57625 190.589 4.93831 176.169 13.3895C161.748 21.8407 148.524 32.345 133.506 39.6826C111.855 50.2606 87.5691 53.7601 63.9704 58.6324C46.6078 62.217 28.5918 67.0439 15.683 79.1962C5.78541 88.5153 -0.30739 101.971 0.01197 115.562C0.33133 129.154 7.31565 142.595 18.6917 150.039C36.3237 161.576 59.6107 157.375 79.8757 151.603C100.141 145.832 121.938 138.917 141.718 146.178C161.529 153.452 173.84 173.022 191.107 185.157C209.992 198.428 236.429 201.055 259.076 199.49C280.368 198.018 292.435 171.743 286.483 152.71Z" fill="#969696"/>
<path d="M35.4514 167.537C28.6751 164.805 21.8994 162.072 15.1231 159.339C12.8895 158.439 10.51 157.52 8.13688 157.929C3.73368 158.688 1.27544 163.944 2.07864 168.339C2.8812 172.735 6.01144 176.314 9.25176 179.391C13.4822 183.407 18.197 187.035 23.6108 189.205C29.0246 191.376 35.2191 191.987 40.7052 190.005C44.8057 188.524 52.2482 183.128 51.1206 177.941C50.0063 172.812 39.559 169.194 35.4514 167.537Z" fill="#969696"/>
</g>
<path d="M270.274 130.927H182.285V250.019H270.274V130.927Z" stroke="#121D30" stroke-width="0.75" stroke-miterlimit="10"/>
<path d="M266.046 136.652H186.516V244.294H266.046V136.652Z" stroke="#121D30" stroke-width="0.75" stroke-miterlimit="10"/>
<path d="M236.237 197.089H216.32V203.637H236.237V197.089Z" stroke="#121D30" stroke-width="0.75" stroke-miterlimit="10"/>
<path d="M238.739 206.912H213.82V209.607H238.739V206.912Z" stroke="#121D30" stroke-width="0.75" stroke-miterlimit="10"/>
<path d="M195.6 242.244H188.848H192.277" stroke="#121D30" stroke-width="0.75" stroke-miterlimit="10"/>
<path d="M188.848 239.993H191.312" stroke="#121D30" stroke-width="0.75" stroke-miterlimit="10"/>
<path d="M224.008 198.147H229.031" stroke="#121D30" stroke-width="0.75" stroke-miterlimit="10"/>
<path d="M220.893 199.989H232.148" stroke="#121D30" stroke-width="0.75" stroke-miterlimit="10"/>
<path d="M224.311 202.137H228.729" stroke="#121D30" stroke-width="0.75" stroke-miterlimit="10"/>
<path d="M266.046 191.42H186.516" stroke="#121D30" stroke-width="0.75" stroke-miterlimit="10"/>
<path d="M236.237 141.431H216.32V147.979H236.237V141.431Z" stroke="#121D30" stroke-width="0.75" stroke-miterlimit="10"/>
<path d="M238.739 151.253H213.82V153.947H238.739V151.253Z" stroke="#121D30" stroke-width="0.75" stroke-miterlimit="10"/>
<path d="M253.715 189.245H263.75" stroke="#121D30" stroke-width="0.75" stroke-miterlimit="10"/>
<path d="M261.863 187.608H263.75" stroke="#121D30" stroke-width="0.75" stroke-miterlimit="10"/>
<path d="M220.777 142.659H232.241" stroke="#121D30" stroke-width="0.75" stroke-miterlimit="10"/>
<path d="M218.514 144.569H234.503" stroke="#121D30" stroke-width="0.75" stroke-miterlimit="10"/>
<path d="M185.984 138.089H189.957" stroke="#121D30" stroke-width="0.75" stroke-miterlimit="10"/>
<path d="M185.984 140.749H198.269" stroke="#121D30" stroke-width="0.75" stroke-miterlimit="10"/>
<path d="M40.5193 127.045C54.216 130.033 67.9126 133.021 81.6099 136.01C75.3494 117.352 98.6742 105.149 92.4137 86.4908C78.7171 83.5027 65.0205 80.5145 51.3238 77.5264C57.5837 96.1843 34.2589 108.387 40.5193 127.045Z" fill="white"/>
<path d="M68.2616 115.031L60.862 113.631L61.0021 112.891C61.2402 111.632 61.5768 110.637 62.0108 109.905C62.4447 109.174 63.006 108.538 63.6933 107.995C64.3807 107.453 65.8661 106.55 68.149 105.288C69.3624 104.63 70.037 103.945 70.172 103.231C70.3071 102.517 70.2008 101.922 69.854 101.446C69.5071 100.97 68.9048 100.651 68.0485 100.489C67.1269 100.314 66.3064 100.476 65.5871 100.971C64.8677 101.467 64.2802 102.458 63.8239 103.945L56.4453 101.58C57.2306 98.8512 58.6629 96.8064 60.7429 95.4451C62.8223 94.0839 65.6799 93.7472 69.3144 94.4352C72.1445 94.9709 74.3173 95.9943 75.8335 97.5047C77.8936 99.5488 78.6725 101.901 78.1688 104.563C77.9602 105.666 77.4533 106.673 76.6495 107.583C75.845 108.493 74.3621 109.51 72.1996 110.633C70.6917 111.423 69.7061 112.101 69.2434 112.666C68.7807 113.23 68.453 114.019 68.2616 115.031ZM60.2367 115.549L68.1618 117.05L66.8389 124.04L58.9138 122.54L60.2367 115.549Z" stroke="#121D30" stroke-width="0.75" stroke-miterlimit="10"/>
<path d="M189.047 107.658C201.117 100.527 213.188 93.3978 225.258 86.2682C207.975 76.8551 216.764 52.0416 199.481 42.6292C187.41 49.7588 175.34 56.889 163.27 64.0186C180.553 73.4311 171.764 98.2445 189.047 107.658Z" fill="white"/>
<path d="M201.293 78.4154L194.733 82.1139L194.363 81.4579C193.734 80.3418 193.349 79.3639 193.21 78.5248C193.07 77.6858 193.089 76.8378 193.265 75.9795C193.441 75.1219 193.995 73.4752 194.927 71.0381C195.431 69.753 195.504 68.7936 195.148 68.1607C194.791 67.5277 194.327 67.1411 193.755 67.001C193.182 66.8608 192.517 67.0048 191.757 67.433C190.94 67.8938 190.416 68.5453 190.186 69.3882C189.956 70.2311 190.146 71.3677 190.755 72.7981L183.589 75.7459C182.431 73.1533 182.208 70.6663 182.921 68.2855C183.633 65.9047 185.601 63.8055 188.823 61.9885C191.332 60.5741 193.653 59.9559 195.786 60.1331C198.679 60.368 200.79 61.6647 202.12 64.0244C202.672 65.0029 202.933 66.0992 202.905 67.3127C202.876 68.5267 202.398 70.2605 201.468 72.5133C200.825 74.0896 200.508 75.2429 200.518 75.9725C200.529 76.704 200.787 77.5175 201.293 78.4154ZM195.492 83.984L202.517 80.0224L206.012 86.2202L198.986 90.1818L195.492 83.984Z" stroke="#121D30" stroke-width="0.75" stroke-miterlimit="10"/>
<path d="M222.78 176.437C210.709 169.307 198.639 162.177 186.568 155.047C203.852 145.634 195.062 120.821 212.346 111.408C224.416 118.538 236.486 125.668 248.557 132.798C231.273 142.211 240.062 167.024 222.78 176.437Z" fill="white"/>
<path d="M218.602 149.896L211.872 146.517L212.21 145.844C212.785 144.699 213.382 143.834 214.001 143.25C214.619 142.666 215.333 142.208 216.143 141.875C216.954 141.543 218.629 141.084 221.171 140.497C222.519 140.198 223.356 139.724 223.682 139.075C224.008 138.426 224.07 137.824 223.867 137.271C223.664 136.718 223.173 136.246 222.394 135.855C221.555 135.434 220.723 135.363 219.894 135.642C219.067 135.921 218.229 136.713 217.382 138.017L210.937 133.717C212.442 131.309 214.382 129.736 216.755 128.998C219.128 128.261 221.968 128.723 225.274 130.383C227.848 131.676 229.656 133.256 230.698 135.125C232.118 137.656 232.22 140.133 231.004 142.553C230.5 143.557 229.736 144.385 228.713 145.039C227.69 145.693 225.984 146.264 223.596 146.75C221.929 147.096 220.796 147.477 220.195 147.892C219.596 148.307 219.064 148.975 218.602 149.896ZM210.744 148.189L217.952 151.809L214.759 158.167L207.551 154.547L210.744 148.189Z" stroke="#121D30" stroke-width="0.75" stroke-miterlimit="10"/>
<path d="M133.878 75.7614C133.878 75.7614 144.25 60.6306 157.221 68.1742C173.46 77.6174 153.848 100.114 165.851 106.624C177.854 113.134 190.263 113.64 193.722 131.647C198.243 155.189 155.661 188.286 119.653 167.332C83.6443 146.378 96.4539 107.161 113.364 99.3557C133.71 89.9624 133.878 75.7614 133.878 75.7614Z" fill="#121D30"/>
<path d="M148.666 115.916V132.056C148.666 134.748 147.572 137.183 145.807 138.948C144.052 140.713 141.617 141.807 138.925 141.807C133.542 141.807 129.184 137.439 129.184 132.056V115.916H148.666V115.916Z" fill="#D28A7B"/>
<path d="M107.892 104.851C108.7 108.8 112.557 111.346 116.507 110.538C120.456 109.729 123.002 105.872 122.194 101.923C121.385 97.9732 117.528 95.4273 113.579 96.2356C109.629 97.044 107.084 100.901 107.892 104.851Z" fill="#D28A7B"/>
<path d="M118.841 92.6273V104.932C118.841 104.932 113.955 100.592 114.091 92.0481L118.841 92.6273Z" fill="#121D30"/>
<path d="M109.893 102.083L115.676 105.997" stroke="#121D30" stroke-width="0.75" stroke-miterlimit="10"/>
<path d="M150.156 103.386C150.965 107.336 154.821 109.882 158.771 109.073C162.72 108.265 165.266 104.408 164.458 100.458C163.649 96.5089 159.792 93.963 155.843 94.7713C151.893 95.5796 149.347 99.4369 150.156 103.386Z" fill="#D28A7B"/>
<path d="M157.306 101.922C157.306 101.922 161.481 97.3563 160.014 86.53H154.162L157.306 101.922Z" fill="#121D30"/>
<path d="M156.104 105.143L161.766 99.6577" stroke="#121D30" stroke-width="0.75" stroke-miterlimit="10"/>
<path d="M138.074 73.3953C127.452 73.3953 118.842 82.0058 118.842 92.6279V106.63C118.842 109.589 120.366 112.339 122.874 113.909L133.52 120.571C136.305 122.314 139.843 122.314 142.629 120.571L153.275 113.909C155.783 112.34 157.307 109.589 157.307 106.63V92.6279C157.307 82.0058 148.696 73.3953 138.074 73.3953Z" fill="#D28A7B"/>
<path d="M129.182 118.017L133.519 120.732C136.305 122.475 139.842 122.475 142.629 120.732" stroke="#121D30" stroke-width="0.75" stroke-miterlimit="10"/>
<path d="M136.464 73.3953L141.291 106.629H135.234" stroke="#121D30" stroke-width="0.75" stroke-miterlimit="10"/>
<path d="M156.45 102.4C156.45 105.118 154.246 107.321 151.529 107.321C148.811 107.321 146.607 105.118 146.607 102.4C146.607 99.682 148.811 97.4791 151.529 97.4791C154.247 97.4785 156.45 99.682 156.45 102.4Z" fill="#CB705D"/>
<path d="M128.812 105.88C130.734 103.958 130.734 100.842 128.812 98.9207C126.89 96.9989 123.774 96.9989 121.853 98.9207C119.931 100.842 119.931 103.958 121.853 105.88C123.774 107.802 126.89 107.802 128.812 105.88Z" fill="#CB705D"/>
<path d="M148.658 97.6974C148.658 99.4068 147.905 100.783 146.97 100.783C146.034 100.783 145.271 99.4068 145.271 97.6974C145.271 96.3214 145.777 95.1489 146.465 94.7623H146.476L148.551 96.601C148.615 96.9345 148.658 97.3108 148.658 97.6974Z" fill="#121D30"/>
<path d="M130.875 97.6974C130.875 99.4068 130.123 100.783 129.187 100.783C128.24 100.783 127.488 99.4068 127.488 97.6974C127.488 97.2026 127.553 96.7406 127.671 96.3316L130.048 95.0631C130.552 95.6007 130.875 96.5793 130.875 97.6974Z" fill="#121D30"/>
<path d="M160.559 70.779C147.583 63.2366 133.873 75.7569 133.873 75.7569C133.873 75.7569 133.706 89.9649 113.365 99.3512C109.076 101.333 103.329 108.385 100.637 112.675C100.637 112.675 106.582 95.5252 108.455 84.4334C110.338 73.3313 120.198 75.0472 120.198 75.0472C120.198 75.0472 126.173 60.4449 142.698 60.514C154.145 60.5627 160.559 70.779 160.559 70.779Z" fill="#121D30"/>
<path d="M147.381 85.645C149.733 84.1147 151.216 84.4552 150.864 87.7198L147.381 85.645Z" fill="#121D30"/>
<path d="M123.884 88.4245C123.355 85.668 124.229 84.4238 127.12 85.9816L123.884 88.4245Z" fill="#121D30"/>
<path d="M134.969 112.227C137.522 108.774 140.74 110.191 141.556 112.227" stroke="#121D30" stroke-width="0.75" stroke-miterlimit="10"/>
<path d="M220.708 177.716C223.872 173.745 223.218 167.96 219.248 164.796L183.524 136.326C179.553 133.162 173.768 133.816 170.604 137.786C167.439 141.757 168.093 147.542 172.064 150.707L207.789 179.176C211.759 182.341 217.543 181.687 220.708 177.716Z" fill="#D28A7B"/>
<path d="M58.6586 179.283C55.4938 175.312 56.1479 169.527 60.1185 166.363L95.8426 137.893C99.8132 134.728 105.598 135.383 108.762 139.353C111.927 143.324 111.273 149.109 107.302 152.273L71.5777 180.743C67.6078 183.907 61.8234 183.254 58.6586 179.283Z" fill="#D28A7B"/>
<path d="M167.856 127.091L141.289 135.917V136.2L113.87 127.091C105.189 124.206 96.8968 132.381 99.6571 141.102L120.23 206.1H141.289H157.011L182.067 141.102C184.828 132.381 176.536 124.206 167.856 127.091Z" fill="#EDB837"/>
<path d="M152.254 145.562L154.991 127.521L124.035 124.517L126.912 145.562H152.254Z" fill="#EDB837"/>
<path d="M125.721 134.31C130.008 143.714 137.236 147.972 143.027 147.972C147.623 147.972 151.285 145.393 153.244 141.005C152.942 144.217 152.409 148.693 151.513 153.139C149.997 160.659 147.124 169.622 142.047 169.622C141.555 169.622 141.042 169.538 140.52 169.372C131.323 166.446 127.08 143.61 125.721 134.31ZM124.732 130.441C124.732 130.441 128.409 166.022 140.374 169.829C140.955 170.014 141.513 170.102 142.047 170.102C152.505 170.102 154.076 136.365 154.076 136.365C152.93 143.845 148.349 147.492 143.027 147.492C136.308 147.492 128.407 141.683 124.732 130.441Z" fill="#121D30"/>
<path d="M112.836 194.766L163.964 191.994L159.483 204.949L116.92 204.488L112.836 194.766Z" fill="#2E363D"/>
<path d="M159.483 204.949C159.483 204.949 176.996 221.141 178.034 250.02H99.7168C99.7168 222.879 116.92 204.489 116.92 204.489L159.483 204.949Z" fill="#2E363D"/>
<path d="M139.387 207.871L140.436 229.308C140.436 229.308 136.262 227.62 136.363 220.435" stroke="white" stroke-width="0.75" stroke-miterlimit="10"/>
<path d="M168.864 216.881H156.176C156.176 216.881 162.089 230.703 174.667 229.49" stroke="white" stroke-width="0.75" stroke-miterlimit="10"/>
<path d="M101.586 231.477C101.586 231.477 110.954 233.733 119.261 220.423" stroke="white" stroke-width="0.75" stroke-miterlimit="10"/>
<path d="M127.229 202.739H118.369V207.169H127.229V202.739Z" fill="#5C5C5C"/>
<path d="M157.264 202.739H148.404V207.169H157.264V202.739Z" fill="#5C5C5C"/>
<path d="M144.804 202.739H131.344V207.169H144.804V202.739Z" fill="#5C5C5C"/>
<path d="M141.379 201.848H134.77V208.06H141.379V201.848Z" fill="white"/>
<path d="M61.4353 165.29C66.867 161.892 74.0248 163.541 77.4225 168.974L100.522 210.535L93.4475 218.725L57.7515 181.277C54.3537 175.845 56.003 168.687 61.4353 165.29Z" fill="#D28A7B"/>
<path d="M97.6433 207.994C106.998 207.955 115.455 203.243 115.455 203.243L120.712 219.665C105.316 225.502 97.5281 221.656 93.4238 218.75L97.6433 207.994Z" fill="#D28A7B"/>
<path d="M115.455 203.243C115.455 203.243 124.075 202.476 130.232 206.544L131.344 216.796C131.344 216.796 124.153 214.445 119.542 216.007C119.542 216.007 127.5 217.517 130.584 220.866L128.401 223.068C128.401 223.068 121.518 220.027 114.068 221.081L115.455 203.243Z" fill="#D28A7B"/>
<path d="M130.452 209.157C130.452 209.157 123.268 206.831 117.869 206.678" stroke="#121D30" stroke-width="0.75" stroke-miterlimit="10"/>
<path d="M130.949 213.164C130.949 213.164 124.622 210.613 118.049 211.093" stroke="#121D30" stroke-width="0.75" stroke-miterlimit="10"/>
<path d="M85.873 135.08L97.9082 148.016L104.953 166.22L92.6686 152.287L85.873 135.08Z" fill="#E69230"/>
<path d="M103.306 129.006L82.541 141.52L97.1375 165.514L110.766 156.221L103.306 129.006Z" fill="#EDB837"/>
<path d="M85.8728 135.08L92.6683 152.287L104.953 166.22L94.6421 170.032L85.0012 156.859L78.2754 140.046L85.8728 135.08Z" fill="white"/>
<path d="M80.3089 174.168L77.4219 168.974" stroke="#121D30" stroke-width="0.75" stroke-miterlimit="10"/>
<path d="M217.93 163.722C212.499 160.325 205.341 161.974 201.943 167.406L178.844 208.967L185.918 217.157L221.614 179.71C225.011 174.278 223.362 167.12 217.93 163.722Z" fill="#D28A7B"/>
<path d="M181.721 206.427C172.367 206.388 163.909 201.676 163.909 201.676L158.652 218.097C174.048 223.935 181.836 220.089 185.941 217.183L181.721 206.427Z" fill="#D28A7B"/>
<path d="M163.909 201.676C163.909 201.676 155.289 200.909 149.133 204.976L148.021 215.229C148.021 215.229 155.213 212.878 159.824 214.44C159.824 214.44 151.865 215.95 148.782 219.299L150.965 221.5C150.965 221.5 157.847 218.46 165.297 219.514L163.909 201.676Z" fill="#D28A7B"/>
<path d="M148.914 207.591C148.914 207.591 156.097 205.264 161.496 205.111" stroke="#121D30" stroke-width="0.75" stroke-miterlimit="10"/>
<path d="M148.416 211.596C148.416 211.596 154.743 209.045 161.316 209.525" stroke="#121D30" stroke-width="0.75" stroke-miterlimit="10"/>
<path d="M193.494 133.512L181.458 146.448L174.414 164.653L186.698 150.719L193.494 133.512Z" fill="#E69230"/>
<path d="M176.059 127.439L196.824 139.953L182.228 163.947L168.6 154.654L176.059 127.439Z" fill="#EDB837"/>
<path d="M193.494 133.512L186.698 150.719L174.414 164.653L184.724 168.465L194.365 155.292L201.091 138.479L193.494 133.512Z" fill="white"/>
<path d="M199.055 172.602L201.942 167.406" stroke="#121D30" stroke-width="0.75" stroke-miterlimit="10"/>
<path d="M176.315 250.02H101.771C101.247 250.02 100.822 249.596 100.822 249.071V248.229H177.264V249.071C177.263 249.595 176.839 250.02 176.315 250.02Z" fill="#DEDEDE"/>
<path d="M154.857 221.116H123.307V231.913C133.712 229.542 144.273 227.575 154.857 225.75V221.116Z" fill="#969696"/>
<path d="M123.307 231.913V243.091H154.857V225.75C144.273 227.575 133.712 229.541 123.307 231.913Z" fill="#DEDEDE"/>
<path d="M176.856 248.742H101.311C100.801 248.742 100.685 248.025 101.17 247.865L123.308 240.579H154.859L176.996 247.865C177.482 248.025 177.367 248.742 176.856 248.742Z" fill="#DEDEDE"/>
<path d="M151.277 240.58H154.109" stroke="#121D30" stroke-width="0.75" stroke-miterlimit="10"/>
<path d="M123.307 240.58H148.368" stroke="#121D30" stroke-width="0.75" stroke-miterlimit="10"/>
<path d="M123.307 231.913L147.056 227.126" stroke="#121D30" stroke-width="0.75" stroke-miterlimit="10"/>
<path d="M154.857 221.116V240.58" stroke="#121D30" stroke-width="0.75" stroke-miterlimit="10"/>
<path d="M122.654 248.742H176.343" stroke="#121D30" stroke-width="0.75" stroke-miterlimit="10"/>
<path d="M123.307 222.419V238.926" stroke="#121D30" stroke-width="0.75" stroke-miterlimit="10"/>
<path d="M201.021 223.541H77.1056C74.1501 223.541 71.7539 221.145 71.7539 218.19V136.346C71.7539 133.391 74.1501 130.995 77.1056 130.995H201.021C203.977 130.995 206.373 133.391 206.373 136.346V218.19C206.373 221.145 203.977 223.541 201.021 223.541Z" fill="#DEDEDE"/>
<path d="M206.372 150.65V218.19C206.372 221.145 203.976 223.541 201.02 223.541H141.738" stroke="#121D30" stroke-width="0.75" stroke-miterlimit="10"/>
<path d="M71.7539 206.101V136.346C71.7539 133.391 74.1501 130.995 77.1056 130.995H201.021" stroke="#121D30" stroke-width="0.75" stroke-miterlimit="10"/>
<path d="M165.499 164.566C161.83 164.566 158.458 165.829 155.786 167.94C155.786 167.888 155.787 167.837 155.787 167.786C155.787 158.55 148.3 151.062 139.064 151.062C129.828 151.062 122.341 158.55 122.341 167.786C122.341 167.838 122.342 167.889 122.343 167.94C119.671 165.829 116.298 164.566 112.629 164.566C103.965 164.566 96.9414 171.589 96.9414 180.254C96.9414 188.918 103.965 195.941 112.629 195.941C112.833 195.941 113.035 195.934 113.236 195.926C113.438 195.934 113.64 195.941 113.844 195.941H164.522C164.686 195.941 164.848 195.934 165.011 195.929C165.174 195.934 165.336 195.941 165.5 195.941C174.164 195.941 181.188 188.918 181.188 180.254C181.188 171.589 174.164 164.566 165.499 164.566Z" fill="white"/>
<path d="M165.499 164.566C161.83 164.566 158.458 165.829 155.786 167.94C155.786 167.888 155.787 167.837 155.787 167.786C155.787 158.55 148.3 151.062 139.064 151.062C129.828 151.062 122.341 158.55 122.341 167.786C122.341 167.838 122.342 167.889 122.343 167.94C119.671 165.829 116.298 164.566 112.629 164.566C103.965 164.566 96.9414 171.589 96.9414 180.254C96.9414 188.918 103.965 195.941 112.629 195.941C112.833 195.941 113.035 195.934 113.236 195.926C113.438 195.934 113.64 195.941 113.844 195.941" stroke="#121D30" stroke-width="0.75" stroke-miterlimit="10"/>
<path d="M144.95 204.778C152.92 201.533 156.75 192.441 153.505 184.471C150.26 176.501 141.169 172.671 133.199 175.916C125.229 179.161 121.398 188.252 124.643 196.222C127.888 204.192 136.98 208.023 144.95 204.778Z" fill="#121D30"/>
<path d="M145.707 196.144L139.913 190.35L145.707 184.556C145.94 184.323 145.94 183.941 145.707 183.708C145.474 183.475 145.093 183.475 144.86 183.708L139.066 189.502L133.272 183.708C133.039 183.475 132.658 183.475 132.425 183.708C132.192 183.941 132.192 184.323 132.425 184.556L138.219 190.35L132.425 196.144C132.192 196.377 132.192 196.759 132.425 196.991C132.658 197.224 133.039 197.224 133.272 196.991L139.067 191.198L144.861 196.991C145.094 197.224 145.475 197.224 145.708 196.991C145.94 196.759 145.94 196.377 145.707 196.144Z" fill="white"/>
<path d="M24.8516 229.096V239.549H95.4122V229.096H24.8516Z" fill="#5C5C5C"/>
<path d="M27.4648 230.193V238.453H65.5039V230.193H27.4648Z" fill="white"/>
<path d="M28.4805 230.717V237.929H29.3336V230.717H28.4805Z" fill="#5C5C5C"/>
<path d="M63.0352 230.717V237.929H63.8883V230.717H63.0352Z" fill="#5C5C5C"/>
<path d="M82.2005 230.548C84.2856 230.548 85.9752 232.238 85.9752 234.323C85.9752 236.408 84.285 238.097 82.2005 238.097C80.116 238.097 78.4258 236.407 78.4258 234.323C78.4258 232.238 80.116 230.548 82.2005 230.548Z" fill="#969696"/>
<path d="M82.2012 231.12C83.9702 231.12 85.4044 232.554 85.4044 234.322C85.4044 236.091 83.9702 237.525 82.2012 237.525C80.4323 237.525 78.998 236.091 78.998 234.322C78.9987 232.554 80.4323 231.12 82.2012 231.12Z" fill="#DEDEDE"/>
<path d="M94.25 238.639V236.89" stroke="#121D30" stroke-width="0.75" stroke-miterlimit="10"/>
<path d="M92.9434 238.639V237.623" stroke="#121D30" stroke-width="0.75" stroke-miterlimit="10"/>
<path d="M24.8516 239.549V250.002H95.4122V239.549H24.8516Z" fill="#EDB837"/>
<path d="M27.4648 240.646V248.906H65.5039V240.646H27.4648Z" fill="white"/>
<path d="M28.4805 241.17V248.382H29.3336V241.17H28.4805Z" fill="#DEDEDE"/>
<path d="M63.0352 241.17V248.382H63.8883V241.17H63.0352Z" fill="#DEDEDE"/>
<path d="M82.2005 241.001C84.2856 241.001 85.9752 242.691 85.9752 244.776C85.9752 246.861 84.285 248.55 82.2005 248.55C80.116 248.55 78.4258 246.86 78.4258 244.776C78.4258 242.691 80.116 241.001 82.2005 241.001Z" fill="#5C5C5C"/>
<path d="M82.2012 241.573C83.9702 241.573 85.4044 243.007 85.4044 244.776C85.4044 246.545 83.9702 247.98 82.2012 247.98C80.4323 247.98 78.998 246.545 78.998 244.776C78.9987 243.007 80.4323 241.573 82.2012 241.573Z" fill="#DEDEDE"/>
<path d="M93.0898 242.111V242.994" stroke="#121D30" stroke-width="0.75" stroke-miterlimit="10"/>
<path d="M94.3965 244.737V242.409" stroke="#121D30" stroke-width="0.75" stroke-miterlimit="10"/>
<path d="M5.67773 250.02H272.446" stroke="#121D30" stroke-miterlimit="10"/>
<path d="M256.163 96.1607C254.952 95.8868 253.796 95.3313 252.821 94.555L253.136 94.1601C254.051 94.8897 255.137 95.4113 256.275 95.6685L256.163 96.1607ZM259.87 96.1575L259.758 95.6654C260.895 95.4055 261.979 94.882 262.893 94.1505L263.209 94.5454C262.235 95.3236 261.081 95.881 259.87 96.1575ZM250.504 91.6615C249.955 90.53 249.676 89.3146 249.674 88.0481L250.179 88.0468C250.181 89.2359 250.444 90.3783 250.959 91.4407L250.504 91.6615ZM265.52 91.6462L265.065 91.4266C265.578 90.3636 265.838 89.2206 265.838 88.0308L266.2 88.0071L266.343 88.0193C266.344 89.2974 266.067 90.514 265.52 91.6462ZM250.944 84.649L250.489 84.4308C251.025 83.3108 251.823 82.3066 252.794 81.5271L253.11 81.9214C252.198 82.6535 251.449 83.5969 250.944 84.649ZM265.052 84.6062C264.542 83.5578 263.787 82.619 262.869 81.8919L263.183 81.4964C264.159 82.2702 264.963 83.2692 265.506 84.3854L265.052 84.6062ZM256.244 80.4001L256.131 79.9079C256.743 79.7671 257.374 79.6954 258.005 79.6954C258.007 79.6954 258.009 79.6954 258.009 79.6954C258.625 79.6954 259.241 79.7633 259.838 79.8964L259.727 80.3892C259.166 80.2638 258.588 80.2004 258.009 80.2004C258.009 80.2004 258.007 80.2004 258.005 80.2004C257.411 80.201 256.819 80.2676 256.244 80.4001Z" fill="#2E363D"/>
<path d="M15.913 107.96C15.9117 107.96 15.911 107.96 15.9098 107.96L15.7632 107.96L15.7683 107.455L15.9104 107.455C15.9117 107.455 15.9123 107.455 15.9136 107.455C17.0285 107.455 18.1408 107.336 19.2205 107.099L19.3286 107.592C18.2131 107.836 17.0643 107.96 15.913 107.96ZM12.2048 107.527C11.0406 107.249 9.90656 106.838 8.83392 106.305L9.0592 105.852C10.0973 106.369 11.1955 106.767 12.3226 107.036L12.2048 107.527ZM22.7206 106.433L22.5043 105.976C23.5488 105.482 24.5402 104.865 25.4515 104.145L25.7645 104.542C24.8237 105.285 23.799 105.921 22.7206 106.433ZM5.82464 104.357C4.8992 103.598 4.05824 102.733 3.32544 101.787L3.72416 101.478C4.43392 102.394 5.248 103.231 6.14464 103.966L5.82464 104.357ZM28.3104 102.019L27.9168 101.702C28.6451 100.798 29.2704 99.8119 29.7766 98.7713L30.231 98.9914C29.7082 100.067 29.0624 101.086 28.3104 102.019ZM1.4624 98.7258C0.95936 97.6391 0.57984 96.4941 0.33472 95.3229L0.8288 95.2193C1.06624 96.3533 1.4336 97.4612 1.92 98.5133L1.4624 98.7258ZM31.4221 95.6097L30.9299 95.497C31.1872 94.3725 31.3171 93.2122 31.3171 92.0481H31.8221C31.8221 93.25 31.6877 94.4487 31.4221 95.6097ZM0.50496 91.7639L0 91.7549C0.02176 90.5543 0.17792 89.3581 0.46528 88.2017L0.95552 88.3233C0.67776 89.4433 0.52608 90.601 0.50496 91.7639ZM31.0458 89.154C30.8294 88.0154 30.4832 86.9005 30.0154 85.8401L30.4774 85.6365C30.96 86.7322 31.3184 87.8842 31.5418 89.0599L31.0458 89.154ZM2.1696 85.0708L1.71904 84.8417C2.26112 83.7761 2.92608 82.7693 3.69472 81.8497L4.08256 82.1741C3.3376 83.0644 2.6944 84.0391 2.1696 85.0708ZM28.2662 82.8436C27.5731 81.9149 26.7744 81.0631 25.8918 80.3117L26.2195 79.9271C27.1309 80.7028 27.9558 81.5828 28.6714 82.5421L28.2662 82.8436ZM6.592 79.7761L6.28608 79.3741C7.23968 78.649 8.2752 78.0321 9.36448 77.5399L9.57248 78.0001C8.5184 78.4769 7.51552 79.0746 6.592 79.7761ZM23.0131 78.3719C21.984 77.8362 20.8934 77.4183 19.7722 77.1284L19.8982 76.6394C21.0566 76.9383 22.183 77.3703 23.2461 77.9239L23.0131 78.3719ZM12.8768 76.9389L12.7776 76.4436C13.801 76.2388 14.8538 76.1357 15.9059 76.1357C16.0576 76.1357 16.2016 76.1377 16.3488 76.1415L16.3347 76.6465C16.192 76.642 16.041 76.6317 15.9053 76.6407C14.8864 76.6407 13.8675 76.7412 12.8768 76.9389Z" fill="#2E363D"/>
<path d="M30.8124 105.687C33.4627 105.687 35.6111 103.539 35.6111 100.888C35.6111 98.2381 33.4627 96.0896 30.8124 96.0896C28.1621 96.0896 26.0137 98.2381 26.0137 100.888C26.0137 103.539 28.1621 105.687 30.8124 105.687Z" fill="#2E363D"/>
<path d="M203.047 16.473C203.047 18.4257 201.463 20.009 199.511 20.009C197.558 20.009 195.975 18.4257 195.975 16.473C195.975 14.5204 197.558 12.937 199.511 12.937C201.463 12.937 203.047 14.5204 203.047 16.473Z" fill="#2E363D"/>
<path d="M254.725 81.952C254.725 83.3472 253.594 84.4781 252.199 84.4781C250.804 84.4781 249.674 83.3472 249.674 81.952C249.674 80.5568 250.805 79.4259 252.199 79.4259C253.594 79.4259 254.725 80.5568 254.725 81.952Z" fill="#2E363D"/>
<path d="M80.9997 65.9399C83.0922 65.9399 84.7885 64.2436 84.7885 62.1511C84.7885 60.0586 83.0922 58.3623 80.9997 58.3623C78.9072 58.3623 77.2109 60.0586 77.2109 62.1511C77.2109 64.2436 78.9072 65.9399 80.9997 65.9399Z" fill="#2E363D"/>
<path d="M87.8198 73.7696C87.5197 73.7696 87.2189 73.7504 86.9245 73.7114L86.9904 73.2109C88.1136 73.3581 89.2752 73.2006 90.3178 72.752L90.5174 73.2154C89.6637 73.5834 88.7562 73.7696 87.8198 73.7696ZM83.5843 72.2957C82.6186 71.529 81.8774 70.5171 81.4416 69.3696L81.9139 69.1904C82.3171 70.2528 83.0038 71.1898 83.8986 71.9002L83.5843 72.2957ZM93.3456 70.9466L92.9366 70.6502C93.6054 69.7267 94.0112 68.6394 94.1098 67.5046L94.6128 67.5488C94.5066 68.7738 94.0682 69.9488 93.3456 70.9466ZM81.505 66.9498H81C81 65.7158 81.3334 64.5069 81.9632 63.4534L82.3971 63.7126C81.8134 64.688 81.505 65.8074 81.505 66.9498ZM93.5056 64.201C93.0096 63.1763 92.2435 62.3027 91.2918 61.6749L91.5702 61.2531C92.5981 61.9315 93.4243 62.8742 93.9606 63.9808L93.5056 64.201ZM84.824 61.3901L84.5834 60.9459C85.6586 60.3654 86.9053 60.0832 88.1187 60.137L88.0963 60.6419C86.975 60.5933 85.8192 60.8525 84.824 61.3901Z" fill="#2E363D"/>
<path d="M207.262 30.0032C206.039 29.9117 204.871 29.5744 203.79 29.001L204.027 28.5549C205.045 29.0957 206.147 29.4132 207.3 29.4989L207.262 30.0032ZM210.845 29.5367L210.679 29.0599C211.766 28.6804 212.748 28.0884 213.596 27.3012L213.94 27.6711C213.04 28.5063 211.998 29.1335 210.845 29.5367ZM201.011 26.6912C200.246 25.7306 199.7 24.6445 199.385 23.4631L199.874 23.3338C200.169 24.4474 200.685 25.4708 201.406 26.3764L201.011 26.6912ZM216.034 24.7258L215.571 24.5236C216.032 23.4701 216.265 22.3488 216.265 21.1885H216.77C216.77 22.4186 216.523 23.6084 216.034 24.7258ZM216.216 20.2791C216.091 19.1309 215.737 18.0416 215.161 17.0407L215.599 16.7892C216.21 17.8509 216.586 19.0068 216.718 20.2253L216.216 20.2791ZM199.689 19.9322L199.189 19.8567C199.372 18.6458 199.797 17.5072 200.452 16.4698L200.88 16.7399C200.262 17.7172 199.861 18.7911 199.689 19.9322ZM212.898 14.4948C211.969 13.8042 210.928 13.3229 209.805 13.065L209.918 12.5728C211.11 12.8468 212.214 13.3575 213.198 14.089L212.898 14.4948ZM203.249 14.2906L202.965 13.8733C203.98 13.1834 205.104 12.72 206.306 12.4973L206.398 12.9933C205.265 13.2039 204.205 13.6404 203.249 14.2906Z" fill="#2E363D"/>
</svg>
