<svg width="320" height="280" viewBox="0 0 320 280" fill="none" xmlns="http://www.w3.org/2000/svg">
<path d="M320 224.734H0V224.894H320V224.734Z" fill="#D7D7D7"/>
<path d="M287.936 235.036H266.738V235.196H287.936V235.036Z" fill="#D7D7D7"/>
<path d="M211.981 236.772H206.418V236.932H211.981V236.772Z" fill="#D7D7D7"/>
<path d="M266.097 229.093H253.814V229.253H266.097V229.093Z" fill="#D7D7D7"/>
<path d="M61.2177 230.169H33.5742V230.329H61.2177V230.169Z" fill="#D7D7D7"/>
<path d="M70.9691 230.169H66.916V230.329H70.9691V230.169Z" fill="#D7D7D7"/>
<path d="M144.093 232.87H84.1406V233.03H144.093V232.87Z" fill="#D7D7D7"/>
<path d="M151.69 196.192H28.1062C26.0922 196.192 24.4531 194.553 24.4531 192.539V18.8221C24.4531 16.808 26.0922 15.1689 28.1062 15.1689H151.69C153.703 15.1689 155.342 16.808 155.342 18.8221V192.539C155.342 194.553 153.703 196.192 151.69 196.192ZM28.1062 15.3296C26.1798 15.3296 24.6131 16.8963 24.6131 18.8227V192.539C24.6131 194.466 26.1798 196.032 28.1062 196.032H151.69C153.615 196.032 155.182 194.466 155.182 192.539V18.8221C155.182 16.8963 153.615 15.3289 151.69 15.3289L28.1062 15.3296Z" fill="#D7D7D7"/>
<path d="M290.118 196.192H166.535C164.521 196.192 162.883 194.553 162.883 192.539V18.8221C162.883 16.808 164.522 15.1689 166.535 15.1689H290.118C292.133 15.1689 293.771 16.808 293.771 18.8221V192.539C293.772 194.553 292.133 196.192 290.118 196.192ZM166.535 15.3296C164.61 15.3296 163.043 16.8963 163.043 18.8227V192.539C163.043 194.466 164.61 196.032 166.535 196.032H290.118C292.044 196.032 293.611 194.466 293.611 192.539V18.8221C293.611 16.8963 292.044 15.3289 290.118 15.3289L166.535 15.3296Z" fill="#D7D7D7"/>
<path d="M267.896 204.164C267.993 203.509 270.233 188.054 265.746 182.718C264.753 181.537 263.499 180.92 262.021 180.883C252.963 180.671 251.724 187.946 251.713 188.02L252.781 188.185C252.823 187.925 253.897 181.768 261.994 181.964C263.166 181.993 264.124 182.467 264.919 183.413C269.097 188.38 266.85 203.849 266.827 204.005L267.896 204.164Z" fill="#D7D7D7"/>
<path d="M268.443 203.46L269.524 203.426C269.519 203.283 269.165 189.186 276.111 186.272C282.919 183.421 285.981 189.284 286.108 189.536L287.074 189.051C287.038 188.98 283.445 182.025 275.693 185.276C268.062 188.475 268.424 202.849 268.443 203.46Z" fill="#D7D7D7"/>
<path d="M268.411 204.567C268.412 204.342 268.476 182.046 272.824 175.524C276.998 169.263 283.731 172.21 284.016 172.34L284.462 171.356C284.384 171.321 276.614 167.891 271.924 174.925C267.397 181.717 267.331 203.636 267.33 204.566L268.411 204.567Z" fill="#D7D7D7"/>
<path d="M260.724 181.419C260.724 181.419 264.678 182.876 263.503 186.319C262.327 189.761 249.821 195.425 249.821 195.425C249.821 195.425 244.583 190.625 249.394 182.817C254.203 175.01 260.617 178.955 260.724 181.419Z" fill="#CDCDCD"/>
<path d="M273.02 174.349C273.02 174.349 270.213 174.048 270.439 172.338C270.665 170.627 281.353 166.226 287.66 173.343C287.66 173.343 283.622 180.28 277.785 180.371C271.948 180.461 273.02 174.349 273.02 174.349Z" fill="#CDCDCD"/>
<path d="M275.902 185.774C275.902 185.774 273.965 184.21 276.056 183.446C278.147 182.682 288.408 182.899 288.515 193.063C288.515 193.063 276.564 195.049 275.085 191.177C273.605 187.306 275.902 185.774 275.902 185.774Z" fill="#CDCDCD"/>
<path d="M258.598 224.87H277.144L279.144 204.566H256.598L258.598 224.87Z" fill="#D7D7D7"/>
<path d="M255.607 206.806H280.135V202.325H255.607V206.806Z" fill="#CDCDCD"/>
<path d="M87.9655 160.323C87.9655 160.323 85.6583 155.288 88.2944 150.325C90.9312 145.362 91.6954 144.193 90.0147 143.176C88.3341 142.159 87.5635 147.146 87.5635 147.146C87.5635 147.146 86.1466 143.716 87.3165 140.125C88.4864 136.534 89.2199 130.686 87.6224 130.059C86.025 129.432 87.3171 137.354 85.9309 140.054C85.9309 140.054 84.7674 137.048 84.5754 134.164C84.384 131.281 84.6835 126.675 83.4215 125.494C82.16 124.313 81.3517 125.13 82.5914 131.495C83.8317 137.859 83.8221 143.032 83.8221 143.032C83.8221 143.032 81.0842 134.684 79.2461 134.44C77.4087 134.197 77.4106 136.9 78.9837 139.245C80.5568 141.59 83.5904 145.792 84.0883 147.953C84.0883 147.953 81.0829 141.67 78.3789 143.595C75.6755 145.521 80.7322 149.316 82.9863 150.687C85.2397 152.059 86.8051 160.653 86.8051 160.653L87.9655 160.323Z" fill="#D7D7D7"/>
<path d="M86.1453 162.387C86.1453 162.387 88.3923 157.319 85.6966 152.396C83.001 147.473 82.2227 146.315 83.8912 145.273C85.559 144.231 86.3897 149.207 86.3897 149.207C86.3897 149.207 87.7651 145.755 86.5523 142.182C85.3395 138.609 84.5363 132.773 86.1261 132.121C87.7158 131.47 86.5184 139.412 87.9366 142.091C87.9366 142.091 89.0649 139.067 89.2217 136.181C89.3785 133.295 89.024 128.695 90.2713 127.495C91.5187 126.295 92.3366 127.1 91.1731 133.482C90.0096 139.865 90.0813 145.037 90.0813 145.037C90.0813 145.037 92.7194 136.649 94.5536 136.378C96.3885 136.107 96.4179 138.811 94.8736 141.179C93.3286 143.547 90.3462 147.793 89.8739 149.962C89.8739 149.962 92.8038 143.635 95.5302 145.52C98.2566 147.405 93.2461 151.275 91.0093 152.681C88.7725 154.085 87.3107 162.703 87.3107 162.703L86.1453 162.387Z" fill="#EBE8E8"/>
<path d="M96.5066 158.773H77.9453L79.4474 172.056H95.0039L96.5066 158.773Z" fill="#CDCDCD"/>
<path d="M31.9805 171.75V224.87H35.8205V179.43H96.6205V224.87H101.1V171.75H31.9805Z" fill="#CDCDCD"/>
<path d="M67.1797 171.75V224.87H71.0197V179.43H131.82V224.87H136.3V171.75H67.1797Z" fill="#D7D7D7"/>
<path d="M149.074 203.906L147.174 203.632C147.516 201.239 149.516 196.712 154.636 196.712C160.701 196.712 163.719 200.213 164.021 203.684L162.109 203.85C161.882 201.253 159.485 198.633 154.636 198.633C149.912 198.633 149.105 203.691 149.074 203.906Z" fill="#CDCDCD"/>
<path d="M171.538 224.526H140.354C138.645 224.526 137.26 223.141 137.26 221.432V205.308C137.26 203.599 138.645 202.214 140.354 202.214H171.538C173.246 202.214 174.631 203.599 174.631 205.308V221.432C174.632 223.141 173.246 224.526 171.538 224.526Z" fill="#D7D7D7"/>
<path d="M164.02 224.871C137.622 224.871 136.311 206.753 136.301 206.57L137.377 204.472C137.418 205.145 139.5 222.951 164.019 222.951C174.11 222.951 182.824 222.951 183.706 221.018C184.481 219.319 180.697 214.964 174.63 207.981V205.308C182.361 214.206 186.739 218.992 185.452 221.814C184.113 224.755 178.275 224.871 164.02 224.871Z" fill="#CDCDCD"/>
<path d="M33.3457 26.5505V45.4663C33.3457 46.5293 34.2071 47.2365 35.2702 47.2365H99.1518C99.1518 47.2365 106.537 43.7921 106.012 38.9812C105.594 35.1418 105.161 32.0103 104.805 29.6289C104.367 26.7277 101.885 24.626 98.9553 24.626H35.2702C34.2071 24.626 33.3457 25.4874 33.3457 26.5505Z" fill="#EBE8E8"/>
<path d="M33.3457 26.5505V45.4663C33.3457 46.5293 34.2071 47.2365 35.2702 47.2365H40.9035C40.9035 47.2365 48.2929 43.7921 47.7636 38.9812C47.3451 35.1418 46.9118 32.0103 46.5559 29.6289C46.1227 26.7277 43.6356 24.626 40.7057 24.626H35.2695C34.2071 24.626 33.3457 25.4874 33.3457 26.5505Z" fill="#D0CDCD"/>
<path d="M104.546 40.502H48.7404C48.7404 40.502 46.8966 44.5916 43.7695 46.2754H98.2911C98.2911 46.2754 104.064 43.629 104.546 40.502Z" fill="#CDCDCD"/>
<path d="M100.697 44.3506H46.8164L47.6183 46.2751H100.697V44.3506Z" fill="#D7D7D7"/>
<path d="M102.621 41.9453H48.7402L49.5422 43.8698H102.621V41.9453Z" fill="#D7D7D7"/>
<path d="M50.6641 39.6191H52.0273V39.0579H50.6641V39.6191Z" fill="#CDCDCD"/>
<path d="M52.5899 39.6191H53.9531V39.0579H52.5899V39.6191Z" fill="#CDCDCD"/>
<path d="M159.999 253.639C228.532 253.639 284.088 250.394 284.088 246.392C284.088 242.39 228.532 239.146 159.999 239.146C91.4667 239.146 35.9102 242.39 35.9102 246.392C35.9102 250.394 91.4667 253.639 159.999 253.639Z" fill="#F5F5F5"/>
<path d="M271.073 73.9393V181.075C271.073 183.566 269.05 185.588 266.561 185.588H114.893C112.397 185.588 110.375 183.566 110.375 181.075V73.9393C110.375 71.4433 112.397 69.4209 114.893 69.4209H266.561C269.051 69.4209 271.073 71.4433 271.073 73.9393Z" fill="#A27E65"/>
<path opacity="0.8" d="M271.073 73.9393V181.075C271.073 183.566 269.05 185.588 266.561 185.588H114.893C112.397 185.588 110.375 183.566 110.375 181.075V73.9393C110.375 71.4433 112.397 69.4209 114.893 69.4209H266.561C269.051 69.4209 271.073 71.4433 271.073 73.9393Z" fill="white"/>
<path opacity="0.1" d="M271.073 73.9393V82.2657H110.375V73.9393C110.375 71.4433 112.397 69.4209 114.893 69.4209H266.561C269.051 69.4209 271.073 71.4433 271.073 73.9393Z" fill="black"/>
<path opacity="0.4" d="M265.741 76.2949C265.741 77.6076 264.677 78.6712 263.365 78.6712C262.052 78.6712 260.988 77.6069 260.988 76.2949C260.988 74.9823 262.052 73.918 263.365 73.918C264.677 73.918 265.741 74.9823 265.741 76.2949Z" fill="#A27E65"/>
<path opacity="0.4" d="M257.102 76.2949C257.102 77.6076 256.038 78.6712 254.726 78.6712C253.413 78.6712 252.35 77.6069 252.35 76.2949C252.35 74.9823 253.413 73.918 254.726 73.918C256.038 73.918 257.102 74.9823 257.102 76.2949Z" fill="#A27E65"/>
<path opacity="0.4" d="M248.462 76.2949C248.462 77.6076 247.397 78.6712 246.085 78.6712C244.773 78.6712 243.709 77.6069 243.709 76.2949C243.709 74.9823 244.773 73.918 246.085 73.918C247.397 73.918 248.462 74.9823 248.462 76.2949Z" fill="#A27E65"/>
<path opacity="0.4" d="M268.129 87.7598H113.26V96.5367H268.129V87.7598Z" fill="white"/>
<path opacity="0.4" d="M268.129 99.2852H113.32V175.227H268.129V99.2852Z" fill="white"/>
<path d="M236.949 62.7002L269.82 62.7002V35.5386H236.949V62.7002Z" fill="#A27E65"/>
<path opacity="0.6" d="M236.947 35.54V62.7016H269.819V35.54H236.947ZM238.02 36.612H268.748V61.629H238.02V36.612Z" fill="white"/>
<path opacity="0.4" d="M236.949 62.7002L269.82 62.7002V35.5386H236.949V62.7002Z" fill="white"/>
<path opacity="0.3" d="M268.747 54.2146L259.324 47.3691L252.325 54.2146L245.325 50.212L238.02 54.7106V61.6283H268.747V54.2146Z" fill="white"/>
<path opacity="0.6" d="M248.802 45.033C250.045 45.033 251.053 44.0253 251.053 42.7821C251.053 41.539 250.045 40.5312 248.802 40.5312C247.559 40.5312 246.551 41.539 246.551 42.7821C246.551 44.0253 247.559 45.033 248.802 45.033Z" fill="white"/>
<path d="M235.528 172.267H195.77V205.118H235.528V172.267Z" fill="#A27E65"/>
<path opacity="0.6" d="M195.77 172.267V205.118H235.528V172.267H195.77ZM234.231 203.822H197.066V173.564H234.231V203.822Z" fill="white"/>
<path opacity="0.2" d="M197.066 191.381L204.613 183.749L210.957 190.84L215.036 188.692L218.469 192.272L221.191 190.84L224.665 193.984H234.231V203.821H197.066V191.381Z" fill="white"/>
<path opacity="0.6" d="M222.033 178.438C222.149 178.741 222.215 179.067 222.215 179.409C222.215 180.913 220.996 182.132 219.493 182.132C219.198 182.132 218.916 182.084 218.65 181.998C219.042 183.022 220.03 183.749 221.192 183.749C222.695 183.749 223.914 182.53 223.914 181.027C223.914 179.817 223.125 178.793 222.033 178.438Z" fill="white"/>
<path opacity="0.2" d="M221.832 203.821H197.064V191.382L204.611 183.749L210.956 190.841L215.037 188.692L218.469 192.271L221.192 190.841L224.663 193.985C224.663 193.985 213.335 195.905 213.447 199.307C213.564 202.708 221.832 203.821 221.832 203.821Z" fill="white"/>
<path d="M258.853 97.9785H205.713V141.888H258.853V97.9785Z" fill="#A27E65"/>
<path opacity="0.6" d="M205.713 97.9785V141.888H258.853V97.9785H205.713ZM257.12 140.154H207.446V99.7123H257.12V140.154Z" fill="white"/>
<path opacity="0.2" d="M207.445 121.871L216.624 114.613L228.131 123.436L242.818 111.672L257.119 122.227V140.154H207.445V121.871Z" fill="white"/>
<path opacity="0.2" d="M257.119 128.696H207.445V140.154H257.119V128.696Z" fill="white"/>
<path opacity="0.2" d="M229.041 128.696L238.95 140.154H248.196L229.041 128.696Z" fill="white"/>
<path opacity="0.6" d="M227.413 113.954C228.981 113.954 230.252 112.683 230.252 111.115C230.252 109.547 228.981 108.276 227.413 108.276C225.845 108.276 224.574 109.547 224.574 111.115C224.574 112.683 225.845 113.954 227.413 113.954Z" fill="white"/>
<path d="M100.693 118.513H135.191V90.0077H100.693V118.513Z" fill="#A27E65"/>
<path opacity="0.6" d="M100.693 90.0078V118.513H135.191V90.0078H100.693ZM101.818 91.1329H134.066V117.387H101.818V91.1329Z" fill="white"/>
<path opacity="0.4" d="M100.693 118.513H135.191V90.0077H100.693V118.513Z" fill="white"/>
<path opacity="0.2" d="M134.065 105.518L128.107 100.807L120.637 106.535L111.102 98.8975L101.818 105.749V117.387H134.065V105.518Z" fill="white"/>
<path opacity="0.2" d="M134.065 109.949H101.818V117.388H134.065V109.949Z" fill="white"/>
<path opacity="0.2" d="M120.048 109.949L113.615 117.387H107.613L120.048 109.949Z" fill="white"/>
<path opacity="0.6" d="M119.262 98.5356C119.262 99.5532 120.087 100.379 121.104 100.379C122.122 100.379 122.947 99.5538 122.947 98.5356C122.947 97.518 122.122 96.6924 121.104 96.6924C120.087 96.6924 119.262 97.518 119.262 98.5356Z" fill="white"/>
<path d="M218.286 42.7588H139.807V107.606H218.286V42.7588Z" fill="#A27E65"/>
<path opacity="0.6" d="M139.807 42.7588V107.606H218.286V42.7588H139.807ZM215.727 105.046H142.367V45.3188H215.726V105.046H215.727Z" fill="white"/>
<path opacity="0.3" d="M142.367 87.3463L164.864 71.002L181.575 87.3463L198.285 77.7892L215.727 88.5296V105.045H142.367V87.3463Z" fill="white"/>
<path opacity="0.6" d="M195.361 60.0508C195.361 63.0185 192.954 65.4243 189.987 65.4243C187.019 65.4243 184.613 63.0185 184.613 60.0508C184.613 57.0832 187.02 54.6768 189.987 54.6768C192.954 54.6768 195.361 57.0832 195.361 60.0508Z" fill="white"/>
<path d="M140.165 169.07C117.045 169.07 112.928 163.461 112.928 156.567C112.928 149.673 117.045 144.063 140.165 144.063H233.562C254.8 143.6 260.8 149.672 260.8 156.566C260.8 163.461 255.6 169.07 233.562 169.07H140.165Z" fill="#A27E65"/>
<path opacity="0.6" d="M140.165 169.07C117.045 169.07 112.928 163.461 112.928 156.567C112.928 149.673 117.045 144.063 140.165 144.063H233.562C254.8 143.6 260.8 149.672 260.8 156.566C260.8 163.461 256 169.07 233.562 169.07H140.165Z" fill="white"/>
<path d="M140.164 167.79C120.446 167.79 115.715 162.756 115.715 156.567C115.715 150.378 122.148 144.8 140.164 145.343H233.561C251.999 145.6 258.01 150.377 258.01 156.566C258.01 162.755 252.799 167.79 233.561 167.79H140.164Z" fill="#A27E65"/>
<path opacity="0.4" d="M140.164 167.79C120.446 167.79 115.715 162.756 115.715 156.567C115.715 150.378 122.148 144.8 140.164 145.343H233.561C251.599 145.343 258.01 150.377 258.01 156.566C258.01 162.755 252.399 168 233.561 167.79H140.164Z" fill="white"/>
<path d="M233.564 146.623H140.166C125.126 146.623 118.506 151.075 118.506 156.566C118.506 162.057 123.85 166.51 140.166 166.51H233.564C250.001 166.51 255.224 162.058 255.224 156.567C255.224 151.076 249.601 146.623 233.564 146.623Z" fill="#A27E65"/>
<path d="M137.483 151.2V161H136.461V151.2H137.483ZM141.27 154.238L141.466 156.016C142.068 154.938 143.062 154.168 144.056 154.168C145.022 154.168 145.638 154.84 145.778 156.016C146.38 154.924 147.374 154.168 148.368 154.168C149.46 154.168 150.132 155.036 150.132 156.478V161H149.194V156.632C149.194 155.652 148.774 155.05 148.074 155.05C147.234 155.05 146.324 155.876 145.82 156.94V161H144.882V156.632C144.882 155.652 144.462 155.05 143.776 155.05C142.922 155.05 142.012 155.876 141.508 156.94V161H140.57V156.534L140.332 154.35L141.27 154.238ZM152.219 159.642C152.219 158.48 153.311 157.766 156.279 157.066C156.279 156.926 156.265 156.8 156.265 156.674C156.237 155.596 155.635 155.008 154.599 155.008C153.997 155.008 153.381 155.26 152.863 155.722L152.513 155.008C153.157 154.448 153.941 154.168 154.781 154.168C156.293 154.168 157.133 155.022 157.175 156.604V159.376C157.175 159.978 157.371 160.174 158.001 160.286L157.819 161.14C156.839 161.014 156.419 160.678 156.321 159.866C155.691 160.608 154.697 161.14 153.871 161.14C152.891 161.14 152.219 160.524 152.219 159.642ZM153.171 159.53C153.171 160.076 153.577 160.412 154.207 160.412C154.879 160.412 155.691 159.922 156.279 159.194V157.724C154.081 158.2 153.171 158.732 153.171 159.53ZM165.749 162.092C165.749 163.338 164.335 164.22 162.305 164.22C160.499 164.22 159.337 163.506 159.337 162.358C159.337 161.532 160.051 160.874 161.283 160.566C160.751 160.37 160.457 160.062 160.457 159.67C160.457 159.292 160.695 158.956 161.367 158.76C160.359 158.438 159.729 157.612 159.729 156.548C159.729 155.148 160.835 154.168 162.431 154.168C162.879 154.168 163.285 154.238 163.635 154.378L165.861 154.154L165.763 154.938L164.461 154.91C164.895 155.302 165.147 155.876 165.147 156.548C165.147 157.934 164.083 158.9 162.529 158.928C161.731 158.998 161.381 159.194 161.381 159.474C161.381 159.726 161.605 159.894 162.193 159.992L163.635 160.258C165.077 160.524 165.749 161.112 165.749 162.092ZM162.431 158.214C163.509 158.214 164.181 157.542 164.181 156.548C164.181 155.568 163.509 154.896 162.431 154.896C161.381 154.896 160.695 155.568 160.695 156.548C160.695 157.542 161.381 158.214 162.431 158.214ZM160.275 162.26C160.275 163.044 161.031 163.478 162.375 163.478C163.817 163.478 164.783 162.918 164.783 162.134C164.783 161.574 164.321 161.182 163.481 161.042L162.249 160.832C161.045 161.014 160.275 161.574 160.275 162.26ZM170.34 160.314C171.012 160.314 171.698 160.062 172.23 159.502L172.762 160.09C172.118 160.79 171.222 161.14 170.312 161.14C168.436 161.14 167.176 159.698 167.176 157.654C167.176 155.596 168.38 154.168 170.116 154.168C171.754 154.168 172.916 155.428 172.916 157.29L172.818 157.458L168.128 157.696C168.142 157.794 168.156 157.878 168.17 157.962C168.24 159.376 169.094 160.314 170.34 160.314ZM170.116 154.938C169.08 154.938 168.31 155.722 168.156 156.996L171.95 156.786C171.81 155.652 171.096 154.938 170.116 154.938ZM179.387 154.238L179.583 156.016C180.213 154.91 181.249 154.168 182.299 154.168C183.517 154.168 184.231 155.008 184.231 156.478V161H183.293V156.646C183.293 155.652 182.803 155.05 182.019 155.05C181.109 155.05 180.199 155.82 179.625 156.968V161H178.687V156.534L178.449 154.35L179.387 154.238ZM189.48 161.14C187.632 161.14 186.372 159.698 186.372 157.654C186.372 155.596 187.646 154.168 189.48 154.168C191.342 154.168 192.588 155.596 192.588 157.654C192.588 159.698 191.342 161.14 189.48 161.14ZM189.48 160.3C190.782 160.3 191.622 159.222 191.622 157.654C191.622 156.072 190.782 155.008 189.48 155.008C188.192 155.008 187.338 156.072 187.338 157.654C187.338 159.222 188.192 160.3 189.48 160.3ZM194.987 158.942V155.134H193.839V154.308H195.001L195.043 152.642L195.925 152.544V154.308H198.543L198.431 155.134H195.925V158.886C195.925 159.838 196.401 160.286 197.185 160.286C197.577 160.286 197.997 160.174 198.431 159.852L198.809 160.58C198.277 160.986 197.703 161.14 197.059 161.14C195.799 161.14 194.987 160.482 194.987 158.942ZM207.812 155.134H205.432V161H204.494V155.134H203.346V154.308H204.494V153.02C204.494 151.606 205.334 150.78 206.608 150.78C207.21 150.78 207.77 150.92 208.302 151.354L207.938 152.082C207.462 151.704 207.084 151.634 206.692 151.634C205.922 151.634 205.432 152.18 205.432 153.02V154.308H207.924L207.812 155.134ZM212.011 161.14C210.163 161.14 208.903 159.698 208.903 157.654C208.903 155.596 210.177 154.168 212.011 154.168C213.873 154.168 215.119 155.596 215.119 157.654C215.119 159.698 213.873 161.14 212.011 161.14ZM212.011 160.3C213.313 160.3 214.153 159.222 214.153 157.654C214.153 156.072 213.313 155.008 212.011 155.008C210.723 155.008 209.869 156.072 209.869 157.654C209.869 159.222 210.723 160.3 212.011 160.3ZM221.845 161.07L221.677 159.488C221.047 160.496 220.011 161.14 219.045 161.14C217.897 161.14 217.281 160.314 217.281 158.746V154.35L218.205 154.238V158.69C218.205 159.712 218.625 160.258 219.381 160.258C220.207 160.258 221.103 159.6 221.607 158.62V154.35L222.545 154.238V158.788L222.783 160.958L221.845 161.07ZM226.049 154.238L226.245 156.016C226.875 154.91 227.911 154.168 228.961 154.168C230.179 154.168 230.893 155.008 230.893 156.478V161H229.955V156.646C229.955 155.652 229.465 155.05 228.681 155.05C227.771 155.05 226.861 155.82 226.287 156.968V161H225.349V156.534L225.111 154.35L226.049 154.238ZM233.034 157.878C233.034 155.694 234.308 154.168 236.128 154.168C236.8 154.168 237.402 154.392 237.892 154.77V150.962L238.83 150.85V161H237.892V159.698C237.304 160.566 236.38 161.14 235.47 161.14C233.986 161.14 233.034 159.866 233.034 157.878ZM234 157.85C234 159.362 234.644 160.286 235.722 160.286C236.534 160.286 237.402 159.656 237.892 158.746V155.666C237.458 155.26 236.884 155.022 236.254 155.022C234.896 155.022 234 156.128 234 157.85Z" fill="white"/>
<path d="M105.379 166.648L109.207 163.67C109.207 163.67 109.408 161.973 110.248 161.465C111.088 160.958 114.527 159.606 115.333 159.666C116.139 159.727 116.416 162.947 116.177 163.467C115.938 163.987 110.935 165.458 110.935 165.458L106.309 170.031L105.379 166.648Z" fill="#E4897B"/>
<path d="M76.7559 177.248C82.5159 175.812 91.5245 174.268 95.0439 172.449C98.5632 170.63 104.232 166.355 105.316 166.115C105.316 166.115 107.432 167.577 108.108 168.804C108.108 168.804 103.105 175.322 95.7856 178.789C88.4666 182.257 78.7879 184.989 78.7879 184.989L76.7559 177.248Z" fill="#A27E65"/>
<path opacity="0.5" d="M108.108 168.804C108.108 168.804 103.107 175.322 95.7831 178.789C93.2992 179.964 90.5383 181.06 87.9789 181.985C83.008 183.795 78.7879 184.988 78.7879 184.988L77.7139 180.902L76.7559 177.248C82.5133 175.81 91.5258 174.267 95.0413 172.449C98.5613 170.631 104.229 166.355 105.317 166.114C105.317 166.114 107.434 167.577 108.108 168.804Z" fill="white"/>
<path d="M105.316 166.115L106.945 164.838L109.61 167.121L108.108 168.804L105.316 166.115Z" fill="#A27E65"/>
<path opacity="0.2" d="M87.9798 181.986C83.0089 183.795 78.7888 184.988 78.7888 184.988L77.7148 180.903C77.7148 180.903 83.2489 180.663 87.9798 181.986Z" fill="black"/>
<path d="M78.4701 212.518L81.5511 221.884C91.0404 219.674 115.7 215.033 119.435 225.47C124.078 238.44 90.5271 248.779 71.9575 249.412C53.3885 250.045 43.5824 239.735 55.322 212.665L78.4701 212.518Z" fill="#263238"/>
<path opacity="0.2" d="M78.4701 212.518L81.5511 221.884C91.0404 219.674 115.7 215.033 119.435 225.47C124.078 238.44 90.5271 248.779 71.9575 249.412C53.3885 250.045 43.5824 239.735 55.322 212.665L78.4701 212.518Z" fill="black"/>
<path d="M114.057 243.805C114.015 243.831 113.961 243.828 113.921 243.798C113.884 243.771 113.871 243.724 113.888 243.682C113.949 243.476 114.564 241.691 115.186 241.503C115.32 241.47 115.461 241.512 115.556 241.611C115.732 241.757 115.817 241.986 115.777 242.21C115.677 242.544 115.472 242.838 115.195 243.049C114.842 243.339 114.461 243.592 114.057 243.805ZM114.217 243.462C114.795 243.207 115.264 242.756 115.54 242.187C115.572 242.032 115.51 241.872 115.382 241.778C115.347 241.735 115.289 241.718 115.236 241.736C115.184 241.754 115.135 241.782 115.093 241.819C114.704 242.309 114.407 242.866 114.217 243.462Z" fill="#263238"/>
<path d="M114.024 243.828C113.983 243.843 113.936 243.83 113.909 243.794C113.851 243.744 112.993 242.662 113.135 241.932C113.169 241.749 113.276 241.587 113.431 241.484C113.565 241.356 113.77 241.336 113.925 241.438C114.374 241.754 114.32 243.203 114.099 243.751L114.083 243.806C114.067 243.819 114.046 243.827 114.024 243.828ZM113.537 241.707C113.46 241.775 113.408 241.866 113.389 241.967C113.3 242.429 113.731 243.122 113.963 243.454C114.104 242.835 114.058 241.82 113.795 241.637C113.767 241.622 113.713 241.58 113.58 241.673L113.537 241.707Z" fill="#263238"/>
<path d="M81.4153 246.848C81.4402 246.804 81.4889 246.78 81.5381 246.787C81.5823 246.792 81.6175 246.828 81.622 246.872C81.6693 247.082 81.9951 248.942 81.5413 249.408C81.4396 249.502 81.2962 249.534 81.1644 249.493C80.9404 249.451 80.7554 249.292 80.6818 249.075C80.6082 248.735 80.6441 248.379 80.7849 248.06C80.9538 247.635 81.165 247.23 81.4153 246.848ZM81.4415 247.224C81.0581 247.727 80.8668 248.35 80.9013 248.981C80.9487 249.132 81.0799 249.242 81.2367 249.262C81.2885 249.283 81.3474 249.271 81.3852 249.229C81.4229 249.188 81.4517 249.139 81.4697 249.087C81.5733 248.469 81.5637 247.839 81.4415 247.224Z" fill="#263238"/>
<path d="M93.5692 237.452L85.9308 240.173L82.2617 241.479L83.2025 245.494L86.7558 244.737L95.4336 242.888L93.5692 237.452Z" fill="#EBB376"/>
<path d="M84.2028 245.684L83.5596 240.947C83.5238 240.683 83.2767 240.501 83.0137 240.545L80.677 240.934C80.677 240.934 77.4962 241.233 76.8646 242.048C75.0175 244.431 76.1714 254.944 77.4022 255.315C77.8527 255.451 78.3289 254.833 78.5247 254.406C79.1468 253.052 80.2431 249.508 80.7762 248.385C81.399 247.071 83.1071 246.428 83.8751 246.198C84.0972 246.132 84.2342 245.913 84.2028 245.684Z" fill="#A27E65"/>
<path d="M81.4335 246.812C81.4623 246.778 81.5103 246.768 81.5513 246.786C81.6262 246.801 82.8998 247.333 83.1302 248.041C83.1891 248.217 83.1731 248.41 83.0879 248.576C83.0335 248.753 82.8627 248.87 82.6771 248.856C82.1318 248.797 81.4783 247.503 81.4054 246.917L81.3926 246.861C81.4009 246.841 81.4156 246.824 81.4335 246.812ZM82.887 248.433C82.9222 248.336 82.9235 248.231 82.8915 248.133C82.7455 247.686 82.0332 247.287 81.6691 247.109C81.8444 247.719 82.3763 248.586 82.695 248.618C82.7276 248.617 82.7948 248.628 82.8659 248.482L82.887 248.433Z" fill="#263238"/>
<path opacity="0.2" d="M93.5681 237.452L85.9297 240.173L86.7546 244.737L95.4324 242.888L93.5681 237.452Z" fill="black"/>
<path d="M88.1076 245.423L90.3053 245.582L88.8346 238.022L86.3418 239.402L88.1076 245.423Z" fill="#A27E65"/>
<path opacity="0.6" d="M88.1076 245.423L90.3053 245.582L88.8346 238.022L86.3418 239.402L88.1076 245.423Z" fill="white"/>
<path opacity="0.2" d="M56.2402 216.052L67.6828 228.739C67.6828 228.739 80.3343 228.458 95.6956 235.966C95.6956 235.966 112.179 229.157 113.694 223.501C115.207 217.844 79.0908 221.845 79.0908 221.845L56.2402 216.052Z" fill="black"/>
<path d="M53.9074 185.022C55.9458 191.156 56.0412 205.009 55.3206 212.666L78.4687 212.517C82.4508 197.251 81.1055 186.533 80.7644 182.956C80.3439 178.602 79.67 178.442 79.67 178.442C79.67 178.442 74.9513 177.978 70.8393 178.008C67.6604 178.12 64.4885 178.454 61.3532 179.01C59.021 179.398 56.7158 179.917 54.4438 180.566C53.4338 180.854 52.87 181.928 53.2073 182.922C53.4518 183.645 53.6854 184.344 53.9074 185.022Z" fill="#A27E65"/>
<path opacity="0.6" d="M78.4691 212.519L64.5107 212.609L55.3203 212.667C55.8515 207.029 55.9411 198.043 55.1347 191.246C54.8467 188.801 54.4435 186.645 53.9059 185.025C53.6883 184.346 53.4515 183.643 53.2083 182.926C52.8691 181.927 53.4323 180.853 54.4435 180.565C56.7155 179.918 59.0188 179.4 61.3555 179.009C64.4915 178.453 67.6595 178.119 70.8403 178.01C74.9491 177.978 79.6723 178.439 79.6723 178.439C79.6723 178.439 80.3443 178.606 80.7667 182.958C81.1059 186.535 82.4499 197.249 78.4691 212.519Z" fill="white"/>
<path d="M71.5723 190.184C81.1531 187.172 81.3432 204.194 71.3797 206.557C61.4162 208.92 62.453 193.051 71.5723 190.184Z" fill="#A27E65"/>
<path d="M76.9934 191.15C78.7272 191.113 70.7093 204.953 63.3672 206.22C63.3672 206.22 68.5608 207.007 74.676 200.059C80.7912 193.111 80.1825 190.98 79.7153 190.438C79.1905 189.828 76.9934 191.15 76.9934 191.15Z" fill="white"/>
<path d="M68.4944 194.267L69.2644 194.929L70.2461 194.67L69.8538 195.607L70.4036 196.462L69.3911 196.378L68.7485 197.165L68.5156 196.176L67.5684 195.808L68.4368 195.28L68.4944 194.267Z" fill="white"/>
<path opacity="0.2" d="M55.3204 212.666C55.8516 207.028 55.9412 198.042 55.1348 191.245C57.9828 195.289 62.994 203.449 64.5108 212.608L55.3204 212.666Z" fill="black"/>
<path d="M70.4043 220.957C70.4043 220.957 76.1822 224.714 76.8446 225.012C77.5064 225.309 81.7918 226.357 83.0181 226.287C84.2437 226.218 82.604 222.382 81.5512 221.884C80.4984 221.386 76.7192 222.065 76.7192 222.065L72.2488 218.702L70.4043 220.957Z" fill="#E4897B"/>
<path d="M109.91 225.012V226.892C109.91 227.375 109.342 227.572 108.866 227.572H71.2935C70.811 227.572 70.2305 227.375 70.2305 226.892V225.012H109.91Z" fill="#263238"/>
<path opacity="0.4" d="M109.91 225.012V226.892C109.91 227.375 109.342 227.572 108.866 227.572H71.2935C70.811 227.572 70.2305 227.375 70.2305 226.892V225.012H109.91Z" fill="white"/>
<path opacity="0.2" d="M109.91 225.012V226.892C109.91 227.375 109.342 227.572 108.865 227.572H84.084C83.6021 227.572 83.0293 227.375 83.0293 226.892V225.012H109.91Z" fill="black"/>
<path d="M116.197 205.491L111.725 225.778C111.579 226.446 110.929 226.931 110.272 226.931H85.8393C85.1884 226.931 84.7705 226.325 84.9215 225.656L89.3887 205.524C89.5398 204.862 90.1843 204.531 90.8409 204.531H115.274C115.93 204.531 116.342 204.828 116.197 205.491Z" fill="#263238"/>
<path opacity="0.4" d="M116.196 205.491L111.724 225.778C111.579 226.446 110.928 226.931 110.271 226.931H86.6694C86.0134 226.931 85.6006 226.325 85.7459 225.656L90.2189 205.524C90.3641 204.862 91.0144 204.531 91.671 204.531H115.273C115.93 204.531 116.342 204.828 116.196 205.491Z" fill="white"/>
<path opacity="0.2" d="M104.15 215.802V215.808C104.15 217.545 102.287 218.956 100.922 218.956C99.5572 218.956 98.7476 217.545 99.1367 215.808C99.5259 214.106 100.885 212.718 102.22 212.665C101.831 214.402 102.665 215.808 104.024 215.808C104.054 215.808 104.15 215.808 104.15 215.802Z" fill="black"/>
<path d="M98.875 246.144L106.876 247.46L110.719 248.094L111.839 244.124L108.364 243.067L99.8753 240.484L98.875 246.144Z" fill="#EBB376"/>
<path d="M111.056 243.475L109.325 247.931C109.229 248.18 109.357 248.458 109.608 248.548L111.841 249.338C111.841 249.338 114.768 250.616 115.717 250.208C118.486 249.018 122.566 239.258 121.668 238.339C121.34 238.003 120.624 238.313 120.246 238.592C119.046 239.475 116.371 242.046 115.361 242.77C114.18 243.617 112.374 243.354 111.591 243.184C111.366 243.134 111.14 243.259 111.056 243.475Z" fill="#A27E65"/>
<path opacity="0.2" d="M98.875 246.144L106.876 247.46L108.364 243.067L99.8753 240.484L98.875 246.144Z" fill="black"/>
<path d="M106.987 242.238C106.987 242.238 74.3633 223.898 63.107 224.42C51.8506 224.942 50.2263 234.866 54.8702 241.077C59.5146 247.289 68.0906 248.801 68.0906 248.801C68.0906 248.801 62.2519 240.549 63.0961 238.227C63.9396 235.906 67.2433 239.145 67.2433 239.145C67.2433 239.145 87.7668 245.774 105.72 247.294L106.987 242.238Z" fill="#263238"/>
<path d="M107.512 241.733L105.665 240.493L103.293 247.78H106.142L107.512 241.733Z" fill="#A27E65"/>
<path opacity="0.6" d="M107.512 241.733L105.665 240.493L103.293 247.78H106.142L107.512 241.733Z" fill="white"/>
<path d="M59.3167 179.856C58.1346 181.535 72.6178 184.245 72.6178 184.245C72.6178 184.245 81.0907 178.747 71.1951 177.886C69.1784 177.711 61.1803 177.209 59.3167 179.856Z" fill="#E4897B"/>
<path d="M73.0884 187.368C73.0884 187.368 80.8913 180.931 76.8523 177.079C72.8126 173.227 53.8302 171.501 55.4161 180.3C55.4161 180.3 57.8603 179.581 60.3332 181.933C65.5339 186.878 73.0884 187.368 73.0884 187.368Z" fill="#A27E65"/>
<path opacity="0.2" d="M72.4346 185.511C72.4346 185.511 76.8474 182.082 75.2973 178.986C73.7466 175.89 64.5479 172.515 57.9648 176.776C57.9648 176.776 59.7159 177.554 62.3271 179.784C64.9383 182.014 72.4346 185.511 72.4346 185.511Z" fill="black"/>
<path d="M62.3281 179.784C62.3281 179.784 64.4484 182.809 72.4363 185.511C72.4363 185.511 75.9953 180.987 70.5841 178.92C70.5841 178.92 69.4577 178.568 69.2145 176.775C69.0929 175.911 69.1755 174.708 69.6945 173.044C69.7521 172.852 69.8225 172.648 69.8929 172.443L63.3137 168.328C63.3137 168.328 65.6305 176.667 62.3281 179.784Z" fill="#E4897B"/>
<path opacity="0.2" d="M64.791 170.715C64.791 170.715 65.143 175.419 69.2134 176.776C69.0918 175.912 69.1744 174.708 69.6934 173.044C67.2934 171.777 64.791 170.715 64.791 170.715Z" fill="black"/>
<path d="M64.2975 171.501C64.2975 171.501 59.061 173.59 57.1621 171.121" stroke="#263238" stroke-width="0.5" stroke-miterlimit="10" stroke-linecap="round" stroke-linejoin="round"/>
<path d="M73.4145 157.386C73.4145 157.386 75.6238 154.639 73.0964 151.942C70.5454 149.22 66.7969 151.545 66.7969 151.545" stroke="#263238" stroke-width="0.5" stroke-miterlimit="10" stroke-linecap="round" stroke-linejoin="round"/>
<path d="M73.1523 157.584C73.1523 157.584 76.6589 155.234 74.2531 152.576" stroke="#263238" stroke-width="0.5" stroke-miterlimit="10" stroke-linecap="round" stroke-linejoin="round"/>
<path d="M73.2278 156.943C73.2278 156.943 74.0335 151.437 68.166 149.664C62.2979 147.893 56.2403 153.724 56.2403 153.724C56.2403 153.724 51.686 172.514 64.2991 171.502C76.9129 170.489 73.2278 156.943 73.2278 156.943Z" fill="#263238"/>
<path d="M66.5246 154.971C71.9563 154.462 73.9768 157.207 74.899 162.767C76.051 169.715 74.9656 174.832 68.0344 173.973C58.6213 172.807 57.5045 155.815 66.5246 154.971Z" fill="#E4897B"/>
<path d="M71.3613 162.792C71.3613 162.792 72.2471 164.14 73.1527 164.896C73.1527 164.896 72.7565 165.679 71.7786 165.645L71.3613 162.792Z" fill="#DE5753"/>
<path d="M67.9936 162.658C68.0454 163.104 67.847 163.493 67.5507 163.528C67.2538 163.563 66.9709 163.229 66.9184 162.785C66.8665 162.34 67.0649 161.95 67.3613 161.915C67.6589 161.882 67.9411 162.214 67.9936 162.658Z" fill="#263238"/>
<path d="M67.2402 161.952L68.1638 161.459C68.1638 161.459 67.7772 162.331 67.2402 161.952Z" fill="#263238"/>
<path d="M73.519 161.917C73.5715 162.362 73.3731 162.751 73.0761 162.786C72.7791 162.821 72.4963 162.488 72.4438 162.043C72.3919 161.598 72.5903 161.208 72.8867 161.174C73.1843 161.139 73.4665 161.472 73.519 161.917Z" fill="#263238"/>
<path d="M72.7656 161.21L73.6891 160.717C73.6891 160.717 73.3032 161.588 72.7656 161.21Z" fill="#263238"/>
<path d="M67.5876 158.914C67.5876 158.914 66.0427 158.858 65.3086 159.955" stroke="#263238" stroke-width="0.7247" stroke-miterlimit="10" stroke-linecap="round" stroke-linejoin="round"/>
<path d="M71.5156 158.314C71.5156 158.314 72.4417 157.869 73.7223 158.558" stroke="#263238" stroke-width="0.7247" stroke-miterlimit="10" stroke-linecap="round" stroke-linejoin="round"/>
<path d="M61.4473 164.682C61.4473 164.682 63.5689 159.981 62.8617 156.572C62.8617 156.572 73.2137 151.167 74.7683 162.043C74.7683 162.043 74.9116 152.242 65.5536 152.901C56.2108 153.558 57.5152 167.216 62.7184 170.834C62.7184 170.834 60.1372 167.62 61.4473 164.682Z" fill="#263238"/>
<path d="M62.4419 165.745C62.3235 164.874 61.2822 163.479 59.6726 163.808C58.0067 164.149 57.528 167.68 61.7929 168.119C62.4048 168.181 62.6889 167.562 62.4419 165.745Z" fill="#E4897B"/>
<path d="M72.6161 167.742C72.3179 168.389 72.0222 169.602 72.0222 169.602C71.907 169.595 71.7931 169.588 71.6786 169.575C70.1253 169.441 69.4488 168.867 69.1698 168.269C69.0187 167.942 68.9899 167.605 69.0027 167.332C69.0142 167.017 69.0942 166.795 69.0942 166.795C69.8757 167.358 71.3138 167.594 72.0875 167.688C72.4114 167.731 72.6161 167.742 72.6161 167.742Z" fill="#263238"/>
<path d="M72.0881 167.689L71.8993 168.233C70.4362 168.103 69.4237 167.816 69.0039 167.333C69.0154 167.018 69.0954 166.796 69.0954 166.796C69.8762 167.358 71.3143 167.595 72.0881 167.689Z" fill="white"/>
<path d="M71.6787 169.575C70.1254 169.441 69.449 168.866 69.1699 168.269C69.6979 168.335 70.3264 168.473 70.8653 168.759C71.2787 168.976 71.5245 169.277 71.6787 169.575Z" fill="#DE5753"/>
<path d="M58.6657 152.869C58.6657 152.869 61.2775 148.714 56.8468 147.069C52.4161 145.423 48.1121 151.128 50.77 155.08C53.4286 159.032 57.6692 157.584 57.6692 157.584L58.6657 152.869Z" fill="#263238"/>
<path d="M58.9531 152.31C58.9531 152.31 61.773 148.892 59.2469 146.777" stroke="#263238" stroke-width="0.5" stroke-miterlimit="10" stroke-linecap="round" stroke-linejoin="round"/>
<path d="M56.2773 157.386C56.2773 157.386 55.1381 159.501 52.0366 157.842C48.9352 156.183 49.1253 150.944 52.0366 150.62" stroke="#263238" stroke-width="0.5" stroke-miterlimit="10" stroke-linecap="round" stroke-linejoin="round"/>
<path opacity="0.2" d="M70.7583 185.949C70.7583 186.19 70.5625 186.386 70.3206 186.386C70.0787 186.386 69.8828 186.19 69.8828 185.949C69.8828 185.707 70.0787 185.511 70.3206 185.511C70.5625 185.511 70.7583 185.707 70.7583 185.949Z" fill="black"/>
<path opacity="0.2" d="M75.1626 184.681C75.1626 184.923 74.9662 185.119 74.7249 185.119C74.4836 185.119 74.2871 184.922 74.2871 184.681C74.2871 184.44 74.4836 184.243 74.7249 184.243C74.9668 184.243 75.1626 184.439 75.1626 184.681Z" fill="black"/>
<path d="M79.2622 189.097C79.2622 189.339 79.0664 189.535 78.8245 189.535C78.5826 189.535 78.3867 189.339 78.3867 189.097C78.3867 188.856 78.5826 188.659 78.8245 188.659C79.0658 188.659 79.2622 188.856 79.2622 189.097Z" fill="#263238"/>
<path d="M69.7622 191.349C69.7622 191.591 69.5664 191.787 69.3245 191.787C69.0832 191.787 68.8867 191.591 68.8867 191.349C68.8867 191.108 69.0826 190.911 69.3245 190.911C69.5664 190.912 69.7622 191.108 69.7622 191.349Z" fill="#263238"/>
<path d="M74.7246 184.793C74.7246 184.793 76.5742 184.729 76.852 186.818C77.1304 188.908 78.7124 189.097 78.7124 189.097" stroke="#263238" stroke-width="0.5" stroke-miterlimit="10" stroke-linecap="round" stroke-linejoin="round"/>
<path d="M70.4248 185.933C70.4248 185.933 71.6318 187.072 70.4248 188.274C69.2184 189.477 69.3246 191.186 69.3246 191.186" stroke="#263238" stroke-width="0.5" stroke-miterlimit="10" stroke-linecap="round" stroke-linejoin="round"/>
<path d="M53.4492 181.278C58.0387 177.593 56.2979 198.338 58.4643 203.065C60.6307 207.791 73.526 218.956 73.526 218.956L70.7574 222.065C70.7574 222.065 55.014 213.384 52.8028 207.556C49.999 200.167 50.0624 183.996 53.4492 181.278Z" fill="#A27E65"/>
<path opacity="0.5" d="M53.4492 181.278C58.0387 177.593 56.2979 198.338 58.4643 203.065C60.6307 207.791 73.526 218.956 73.526 218.956L70.7574 222.065C70.7574 222.065 55.014 213.384 52.8028 207.556C49.999 200.167 50.0624 183.996 53.4492 181.278Z" fill="white"/>
<path d="M73.5265 218.957L75.2973 220.451L72.8679 223.404L70.7578 222.066L73.5265 218.957Z" fill="#A27E65"/>
</svg>
